<svg xmlns="http://www.w3.org/2000/svg" width="719.63" height="589.23" viewBox="0 0 719.63 589.23">
	<style type="text/css">
		.st1{fill:#ff5800;}
		.st0{fill:#18293b;}
	</style>
	<path class="st0" d="M646.75,362.09C644.86,355.23 641.91,353.06 635.74,354.08C632.82,354.56 629.93,355.34 627.05,356.07C611.57,360.02 596.05,363.81 580.63,367.99C557.47,374.27 535.66,383.86 514.73,395.5C492.92,407.63 473.26,422.51 456.84,441.41C454.11,444.56 451.86,448.13 449.39,451.51L450.65,452.63C505.87,400.46 573.3,374.71 646.75,362.09M655.59,382.66C653.18,379.27 650.68,376.47 649.02,373.24C646.42,368.16 642.64,368.34 638.21,369.89C637.43,370.16 636.65,370.43 635.86,370.62C618.88,374.8 601.72,378.31 585,383.32C570.05,387.8 555.28,393.2 541.01,399.5C519.65,408.92 499.46,420.66 480.9,434.9C472.25,441.53 464.08,448.76 455.69,455.72C456,456.25 456.31,456.78 456.62,457.31C518.33,421.12 583.83,395.08 655.59,382.66M446.37,464.22C448.28,473.61 451.82,476.01 459.56,473.47C480.24,466.7 500.85,459.7 521.51,452.88C543.59,445.59 565.72,438.47 587.79,431.15C617.52,421.29 647.23,411.35 676.9,401.33C681.03,399.94 685.56,398.66 688.79,395.98C692.21,393.14 691.48,381.86 688.73,378.05C669.02,350.7 649.27,323.38 629.68,295.94C626.84,291.97 624.25,290.41 620.24,294.35C623.16,300.07 625.61,306.2 629.19,311.58C636.48,322.55 644.42,333.1 652.02,343.88C655.7,349.11 655.51,349.68 649.68,352.77C651.42,355.34 652.83,358.16 654.91,360.35C658.18,363.79 656.63,366.18 653.43,368.53C655.15,370.89 656.69,373.01 658.24,375.11C659.81,377.24 661.43,379.34 662.94,381.5C665.54,385.21 664.6,387.73 660.24,388.63C655.56,389.6 650.83,390.36 646.17,391.4C632.98,394.34 619.77,397.18 606.65,400.41C582.76,406.3 559.82,414.89 537.07,424.22C510.02,435.32 484.08,448.43 459.11,463.55C455.28,465.87 451.22,470.37 446.37,464.22M415.8,470.18C415.73,469.45 415.66,468.72 415.58,468C407.93,468.42 400.28,468.92 392.63,469.25C372.17,470.15 352.01,472.94 332.38,478.92C318.19,483.26 303.78,487.08 289.93,492.35C265.48,501.65 242.1,513.34 219.81,527.11C213.93,530.74 213.92,530.64 210.17,524.87C198.5,506.95 186.85,489.01 175.12,471.13C150.48,433.56 125.79,396.02 101.14,358.46C84.62,333.29 68.16,308.08 51.58,282.94C45.95,274.4 45.86,274.5 39.11,282.28C37.26,284.4 36.91,285.97 38.71,288.69C50.27,306.11 61.47,323.77 72.92,341.26C90.5,368.12 108.23,394.88 125.81,421.74C152.97,463.22 180.07,504.73 207.11,546.29C208.96,549.12 210.48,548.98 213.1,547.4C227.82,538.58 242.4,529.49 257.47,521.31C279.84,509.17 303.07,498.88 327.3,490.81C350.57,483.06 374.25,477.19 398.44,473.25C404.24,472.31 410.01,471.21 415.8,470.18M274.32,157.29C273.4,158.4 273.05,158.71 272.82,159.1C266.38,170.22 264.09,182.3 265.14,194.95C265.44,198.55 266.52,202.47 268.44,205.47C281.82,226.31 295.54,246.93 309.09,267.66C328.45,297.29 347.73,326.95 367.08,356.59C385.71,385.14 404.38,413.67 423.05,442.19C425.72,446.27 428.55,450.25 431.3,454.27C433.39,435.84 438.56,419.01 446.88,401.82C443.44,402.91 441.65,403.8 439.78,404C437.28,404.27 434.72,404.01 432.18,403.99C432.54,401.26 432.68,398.49 433.3,395.83C434.17,392.07 435.39,388.39 436.66,384.01C435.02,384.4 434.04,384.44 433.28,384.86C429.09,387.14 425.05,389.7 420.77,391.78C419.34,392.48 417.2,392.5 415.7,391.95C414.92,391.66 414.32,389.38 414.53,388.16C416.02,379.71 417.51,371.24 419.46,362.89C422.4,350.27 421.97,349.11 411.15,342.2C408.37,340.42 405.17,338.28 403.82,335.51C400.72,329.16 398.62,322.34 396.16,315.69C391.59,303.32 387.01,290.95 382.51,278.55C381.4,275.48 379.45,274.61 376.38,275.27C372.02,276.22 367.64,277.18 363.23,277.71C361.49,277.91 359.2,277.44 357.97,276.36C357.28,275.76 357.95,273.18 358.49,271.67C361.26,263.99 364.19,256.37 367.27,248.17C364.73,248.05 362.78,247.9 360.83,247.89C349.34,247.79 337.84,247.78 326.35,247.63C320.58,247.55 319.5,246.49 319.89,240.92C320.35,234.35 321.13,227.8 321.85,220.41C319.2,221.5 317.05,221.97 315.42,223.14C311.94,225.66 309.83,225.19 308.42,221.03C305.71,213.05 302.56,205.2 300.18,197.13C298.9,192.78 297.75,190.99 293.18,193.83C289.84,195.9 286.79,195.02 285.47,190.8C283.27,183.72 281.11,176.62 278.8,169.57C277.51,165.62 275.96,161.74 274.32,157.29M36.33,276.04C36.05,275.73 35.77,275.43 35.49,275.12C27.43,278.36 19.29,281.41 11.34,284.92C6.59,287.01 4.97,294.94 7.92,299.51C67.21,391.27 126.5,483.02 185.79,574.78C189.68,580.8 196.13,583.13 202.64,580.45C219.82,573.35 236.92,566.06 254.06,558.89C286.71,545.24 319.37,531.63 352.01,517.97C374.11,508.73 396.2,499.47 418.24,490.1C419.69,489.48 421.58,488 421.78,486.7C422.28,483.35 421.95,479.88 421.95,475.78C407.67,478.38 394.43,480.75 381.2,483.21C356.99,487.71 333.36,494.41 310.56,503.57C276.7,517.17 244.43,533.94 214.13,554.36C208.39,558.23 207.55,558.21 203.69,552.33C189.21,530.26 174.9,508.08 160.42,486.01C138.53,452.64 116.48,419.37 94.62,385.97C73.51,353.71 52.63,321.3 31.46,289.08C29.33,285.85 27.84,283.84 32.07,281.26C33.88,280.16 34.93,277.82 36.33,276.04M291.69,186.85C294.87,186.49 299.21,184.65 301.5,186.09C303.99,187.64 304.71,192.18 305.93,195.52C308.51,202.58 310.9,209.7 313.52,217.21C317.1,215.39 319.94,213.82 322.89,212.48C324.24,211.86 325.79,211.68 327.24,211.3C327.65,212.95 328.5,214.63 328.39,216.24C327.82,224.28 327,232.29 326.23,240.66C328.55,240.77 330.18,240.91 331.81,240.93C344.3,241.08 356.8,241.17 369.29,241.36C374.86,241.45 376.01,243.42 373.8,248.55C372.24,252.19 370.7,255.85 369.3,259.56C367.99,263.02 366.88,266.55 365.49,270.62C367.2,270.48 368.17,270.49 369.09,270.31C371.52,269.83 373.91,269.16 376.34,268.76C384.48,267.43 385.05,266.75 387.13,274.42C387.52,275.84 388.21,277.19 388.73,278.58C394.12,292.92 399.73,307.18 404.79,321.63C407.46,329.24 410.1,336.38 418.34,339.84C421.17,341.03 423.76,343.05 426.05,345.12C427.18,346.14 428.1,348.27 427.88,349.71C426.98,355.75 425.51,361.7 424.43,367.71C423.52,372.83 422.86,378 421.94,384.14C428.22,380.78 433.49,377.78 438.94,375.16C440.33,374.5 442.55,374.6 443.92,375.28C444.58,375.61 444.47,378.22 444.11,379.65C442.71,385.31 441.07,390.9 439.3,397.3C443.45,396.41 446.79,395.57 450.18,395.04C452.02,394.75 453.95,394.99 455.83,394.99C455.56,396.92 455.86,399.18 454.94,400.72C446.83,414.23 441.83,428.81 439.43,444.3C438.96,447.39 439.37,450.61 439.37,453.77C449.8,438.31 462.13,425.25 476.21,413.75C502.6,392.19 532.76,377.61 564.68,366.36C587.45,358.33 610.82,352.52 634.56,348.14C638.04,347.5 641.48,346.71 645.58,345.86C640.57,338.83 636,332.63 631.67,326.27C626.14,318.15 620.95,309.79 615.3,301.75C613.55,299.26 611.49,296.69 607.21,299.01C600.7,302.55 593.62,305 586.98,308.33C572.04,315.84 557.01,323.22 542.43,331.4C532.39,337.03 522.85,343.22 511.01,344.71C503.57,345.65 502.4,344.66 504.77,337.31C506.1,333.19 507.37,329.05 509.08,323.59C502.71,326.96 497.7,329.68 492.62,332.28C488.77,334.25 486.05,332.92 486.66,329.26C488.58,317.84 490.52,306.42 492.93,295.1C493.71,291.42 493.89,289.35 490.11,287.03C483.31,282.86 476.43,279.14 473.65,270.03C468.35,252.7 461.36,235.88 455.28,218.77C454.13,215.51 452.45,214.78 449.35,215.45C444.99,216.39 440.58,217.17 436.17,217.86C430.4,218.76 428.99,217.06 431.06,211.72C434.02,204.11 437.06,196.53 440.24,188.52C438.57,188.29 437.63,188.08 436.69,188.04C423.92,187.6 411.15,187 398.37,186.86C394.07,186.81 392.18,185.74 392.9,181.2C393.44,177.76 393.48,174.25 393.82,170.77C394.14,167.56 394.56,164.36 395.03,160.3C392.43,161.35 390.73,161.9 389.17,162.71C383.74,165.52 382.99,165.17 380.96,159.17C377.9,150.15 374.74,141.17 371.64,132.24C367.8,132.91 363.38,135.08 361.15,133.71C358.67,132.19 358.19,127.43 356.82,124.09C356.71,123.81 356.41,123.6 356.07,123.23C355.36,123.35 354.48,123.32 353.76,123.64C330.33,134.13 309.87,148.56 294.31,169.2C290.45,174.31 284.69,179.76 291.69,186.85M710.08,260.62C709.76,259.49 709.72,258.8 709.4,258.27C696.41,236.48 683.44,214.67 670.36,192.92C654.07,165.81 637.65,138.77 621.34,111.65C601.38,78.46 581.49,45.22 561.54,12.02C558.43,6.83 555.81,5.79 549.93,7.2C548.98,7.43 548.08,7.97 547.12,8.09C526.64,10.64 507.08,16.67 487.73,23.53C461.75,32.74 436.64,43.98 412.23,56.72C392.93,66.8 373.9,77.39 354.87,87.95C353.76,88.56 352.85,91.24 353.25,92.54C356.19,102.32 359.54,111.99 362.63,121.73C364.49,127.59 364.93,128.24 370.35,125.61C374.81,123.46 376.07,126.04 377.21,129.02C378.68,132.86 379.65,136.89 380.99,140.79C382.84,146.17 384.83,151.5 386.91,157.28C389.02,155.93 390.3,154.83 391.79,154.21C394.56,153.06 397.46,152.2 400.3,151.22C400.7,154.36 401.65,157.54 401.4,160.62C400.87,167.16 399.73,173.65 398.73,180.9C401.08,180.9 402.86,180.88 404.64,180.9C417.13,181.1 429.63,181.28 442.12,181.51C447.54,181.6 448.54,183 446.87,188.19C446.26,190.08 445.43,191.89 444.72,193.75C442.64,199.17 440.57,204.59 437.97,211.38C443.22,210.24 446.85,209.31 450.53,208.69C453.52,208.19 456.97,206.87 458.76,210.83C459.91,213.36 460.72,216.05 461.67,218.67C468.06,236.33 474.4,254.02 480.94,271.63C481.62,273.46 483.32,275.13 484.95,276.33C488.92,279.26 493.07,281.97 497.25,284.59C499.83,286.21 500.52,287.82 499.83,291.11C497.58,301.73 496.01,312.49 494.04,323.97C495.84,323.38 496.91,323.2 497.82,322.71C502.16,320.4 506.38,317.86 510.81,315.74C512.25,315.05 514.18,315.38 515.88,315.23C516.01,316.89 516.56,318.65 516.18,320.19C514.81,325.74 513.12,331.21 511.15,338.08C516.6,336.59 521.46,336.05 525.55,333.99C534.2,329.62 542.26,324.09 550.91,319.71C568.71,310.71 586.6,301.88 604.71,293.54C614.85,288.87 625.34,284.79 635.97,281.38C654.6,275.41 673.44,270.06 692.25,264.65C698.04,262.99 704.01,261.97 710.08,260.62M429.31,462.95C428.24,461.04 427.75,460.04 427.14,459.12C417.38,444.26 407.57,429.43 397.84,414.55C381.54,389.6 365.29,364.62 349.01,339.66C332.55,314.44 316.11,289.21 299.62,264.02C287.17,245 274.7,225.99 262.1,207.07C261.04,205.49 259.05,203.81 257.28,203.54C245.18,201.69 233.08,199.51 220.89,198.76C201.29,197.56 181.81,199.4 162.44,202.89C141.21,206.72 120.89,213.15 101.37,222.29C81.63,231.53 63.5,243.21 46.79,257.18C44.11,259.42 44.39,261.14 45.94,263.47C52.49,273.33 59.11,283.14 65.58,293.05C92.98,334.98 120.28,376.96 147.72,418.86C169.55,452.2 191.57,485.41 213.36,518.77C215.45,521.97 216.9,521.95 220.01,520.11C229.81,514.32 239.64,508.51 249.85,503.52C272.54,492.42 295.87,482.93 320.2,475.76C342.05,469.32 364.23,464.95 386.86,463.17C398.61,462.25 410.5,462.97 422.32,462.95C424.39,462.95 426.47,462.95 429.31,462.95M560.97,0C565.97,8.07 571.03,16.1 575.95,24.22C589.58,46.72 603.19,69.24 616.75,91.8C629.19,112.51 641.56,133.28 653.96,154.02C668.56,178.45 683.15,202.89 697.78,227.31C704.87,239.16 712.03,250.98 719.63,263.59C717.53,264.65 715.88,265.89 714.03,266.34C695.75,270.8 677.37,274.85 659.17,279.59C650.18,281.94 641.52,285.49 631.96,288.76C638.1,297.29 643.76,305.11 649.39,312.96C664.45,333.97 679.54,354.95 694.51,376.02C699.5,383.04 697.59,396.52 692.52,401.14C688.89,404.44 683.1,405.49 678.16,407.21C664.33,412.01 650.44,416.67 636.55,421.31C626.7,424.61 616.8,427.75 606.94,431.04C592.43,435.87 577.95,440.81 563.43,445.63C553.59,448.89 543.67,451.96 533.83,455.24C519.61,459.98 505.45,464.89 491.23,469.62C481.23,472.94 471.25,476.36 461.12,479.24C449.9,482.42 449.83,482.18 442.96,472.76C442.09,471.56 441.49,470.11 440.45,469.11C438.91,467.65 435.86,465.18 435.59,465.43C433.42,467.43 430.75,469.77 430.18,472.42C429.3,476.55 429.94,481.02 429.93,485.34C429.92,493.64 429.88,493.74 422.47,496.85C375.49,516.56 328.5,536.26 281.53,555.98C257.27,566.16 233.04,576.39 208.78,586.57C195.43,592.16 185.48,588.96 177.63,576.79C125.75,496.42 73.85,416.06 21.96,335.69C15.82,326.19 9.7,316.68 3.6,307.15C-4.02,295.24 0.89,281.48 14.23,276.82C22.76,273.84 31.17,270.48 40.11,267.11C39.61,265.67 39.48,264.28 38.75,263.37C35.68,259.53 37.3,257.36 40.63,254.47C59.79,237.84 81.08,224.5 104.16,214.23C120.74,206.85 138.11,201.62 155.95,197.79C181.06,192.4 206.37,191.63 231.81,193.21C240.48,193.75 249.08,195.59 258.48,196.95C257.22,177.89 263.38,160.65 274.47,143.59C280.89,151.86 281.11,161.42 285.73,170.05C288.35,166.99 290.89,164.24 293.18,161.3C305.98,144.89 322.37,132.97 340.63,123.39C344.13,121.55 347.56,119.46 351.25,118.1C354.05,117.08 354.4,115.86 353.49,113.3C350.8,105.68 348.33,97.99 345.72,90.35C344.86,87.83 345.09,86.13 347.82,84.66C361.7,77.18 375.3,69.19 389.29,61.93C405.97,53.27 422.8,44.87 439.82,36.9C452.78,30.82 465.99,25.23 479.36,20.09C489.67,16.13 500.29,12.88 510.95,9.94C522.09,6.87 533.4,4.4 544.71,1.98C549.71,0.91 554.88,0.63 559.97,0Z"/>
	<path class="st0" d="M283.4,65.44C282.46,66.51 281.57,68.39 280.34,68.65C279.01,68.93 276.66,68.16 275.94,67.07C272.07,61.15 268.52,55 264.93,48.89C261.52,43.08 258.27,37.17 254.82,31.37C253.19,28.64 252.36,25.88 255.63,24.15C258.57,22.59 260.13,24.52 261.68,27.25C268.09,38.57 274.88,49.67 281.47,60.88C282.22,62.13 282.63,63.58 283.4,65.44"/>
	<path class="st0" d="M240.1,109.66C236.04,107.81 232.43,106.23 228.88,104.52C218.61,99.56 208.36,94.56 198.11,89.56C195.64,88.36 192.82,86.82 195.14,83.8C196,82.69 199.49,82.49 201.13,83.25C214.37,89.41 227.5,95.83 240.53,102.41C241.83,103.07 242.65,105.3 242.96,106.94C243.08,107.61 241.23,108.64 240.1,109.66"/>
	<path class="st0" d="M332.11,41.32C332.64,30.24 333.22,19.16 333.68,8.08C333.81,4.99 334.93,2.43 338.18,3.05C339.46,3.29 341.12,6.42 341.05,8.17C340.57,20.4 339.81,32.62 338.77,44.8C338.64,46.26 336.3,47.53 334.98,48.88C333.93,47.52 332.65,46.27 331.92,44.75C331.46,43.81 331.83,42.47 331.83,41.31C331.92,41.31 332.02,41.31 332.11,41.32"/>
	<path class="st0" d="M171.35,166.43L214.25,162.78"/>
	<path class="st1" d="M692.25,264.65C673.44,270.06 654.6,275.41 635.97,281.38C625.34,284.79 614.85,288.87 604.71,293.54C586.6,301.88 568.71,310.71 550.91,319.71C542.26,324.09 534.2,329.62 525.54,333.99C521.46,336.05 516.6,336.59 511.15,338.08C513.12,331.21 514.81,325.74 516.18,320.19C516.56,318.65 516.01,316.89 515.88,315.23C514.18,315.38 512.25,315.05 510.8,315.74C506.38,317.86 502.16,320.4 497.82,322.71C496.91,323.2 495.84,323.38 494.04,323.97C496.01,312.49 497.58,301.73 499.83,291.11C500.52,287.82 499.83,286.21 497.25,284.59C493.07,281.97 488.92,279.26 484.95,276.33C483.32,275.13 481.62,273.46 480.94,271.63C474.4,254.02 468.06,236.33 461.67,218.67C460.72,216.05 459.91,213.36 458.76,210.83C456.97,206.87 453.52,208.19 450.53,208.69C446.85,209.31 443.22,210.24 437.97,211.38C440.57,204.59 442.64,199.17 444.72,193.75C445.43,191.89 446.26,190.08 446.87,188.19C448.54,183 447.54,181.6 442.12,181.51C429.63,181.28 417.13,181.1 404.64,180.9C402.86,180.88 401.08,180.9 398.73,180.9C399.73,173.65 400.87,167.16 401.4,160.62C401.65,157.54 400.7,154.36 400.3,151.22C397.46,152.2 394.56,153.06 391.79,154.21C390.3,154.83 389.02,155.93 386.91,157.28C384.83,151.5 382.84,146.17 380.99,140.79C379.65,136.89 378.68,132.86 377.21,129.02C376.07,126.04 374.81,123.46 370.35,125.61C364.93,128.24 364.49,127.59 362.63,121.73C359.54,111.99 356.19,102.32 353.25,92.54C352.85,91.24 353.76,88.56 354.87,87.95C373.9,77.39 392.93,66.8 412.23,56.72C436.64,43.98 461.75,32.74 487.73,23.53C507.07,16.67 526.64,10.64 547.12,8.09C548.08,7.97 548.98,7.43 549.93,7.2C555.81,5.79 558.43,6.83 561.54,12.02C581.49,45.22 601.38,78.46 621.34,111.65C637.65,138.77 654.06,165.81 670.36,192.92C683.44,214.67 696.41,236.48 709.4,258.27C709.72,258.8 709.76,259.49 710.08,260.62C704.01,261.97 698.04,262.99 692.25,264.65M697.77,227.31C683.15,202.89 668.56,178.45 653.96,154.02C641.56,133.28 629.19,112.51 616.75,91.8C603.19,69.24 589.58,46.72 575.95,24.22C571.03,16.1 565.96,8.07 560.97,0L559.97,0C554.88,0.63 549.71,0.91 544.71,1.98C533.4,4.4 522.09,6.87 510.95,9.94C500.29,12.88 489.67,16.13 479.35,20.09C465.99,25.23 452.78,30.82 439.82,36.9C422.8,44.87 405.97,53.27 389.29,61.93C375.3,69.19 361.7,77.18 347.82,84.66C345.09,86.13 344.86,87.83 345.72,90.35C348.3,97.92 350.76,105.53 353.41,113.07C353.62,113.44 353.79,113.84 353.91,114.3C354.76,117.39 355.56,120.48 356.4,123.57C356.59,123.75 356.75,123.91 356.82,124.09C358.19,127.43 358.67,132.19 361.15,133.71C363.38,135.08 367.8,132.91 371.64,132.24C374.74,141.17 377.9,150.15 380.96,159.17C382.99,165.17 383.74,165.52 389.17,162.71C390.73,161.9 392.43,161.35 395.03,160.3C394.56,164.36 394.14,167.56 393.82,170.77C393.48,174.25 393.44,177.76 392.9,181.2C392.18,185.74 394.07,186.81 398.37,186.86C411.15,187 423.92,187.6 436.69,188.04C437.63,188.08 438.57,188.29 440.24,188.52C437.06,196.53 434.02,204.11 431.06,211.72C428.99,217.06 430.4,218.76 436.17,217.86C440.58,217.17 444.99,216.39 449.35,215.45C452.45,214.78 454.13,215.51 455.28,218.77C461.36,235.88 468.35,252.7 473.65,270.03C476.43,279.14 483.31,282.86 490.1,287.03C493.89,289.35 493.71,291.42 492.93,295.1C490.52,306.42 488.58,317.84 486.66,329.26C486.05,332.92 488.77,334.25 492.62,332.28C497.7,329.68 502.71,326.96 509.08,323.59C507.37,329.05 506.1,333.19 504.77,337.31C502.4,344.66 503.57,345.65 511.01,344.71C522.85,343.22 532.39,337.03 542.43,331.4C557.01,323.22 572.04,315.84 586.98,308.33C593.62,305 600.7,302.55 607.21,299.01C608.22,298.46 609.11,298.2 609.89,298.13C617.26,294.72 624.37,290.74 632.16,289.04C632.09,288.94 632.02,288.85 631.95,288.76C641.52,285.49 650.18,281.94 659.17,279.59C677.37,274.85 695.75,270.8 714.03,266.34C715.88,265.89 717.53,264.65 719.63,263.59C712.03,250.98 704.87,239.16 697.77,227.31"/>
	<path class="st1" d="M604.79,176.62C579.2,167.31 556.71,167.35 537.94,176.76C509.68,190.92 500.35,220.96 499.97,222.23C499.49,223.82 500.39,225.49 501.97,225.97C502.26,226.05 502.55,226.1 502.84,226.1C504.13,226.1 505.32,225.26 505.71,223.97C505.8,223.68 514.74,195.06 540.69,182.1C557.91,173.49 578.79,173.54 602.74,182.26C604.3,182.82 606.02,182.02 606.58,180.46C607.15,178.91 606.35,177.19 604.79,176.62"/>
	<path class="st1" d="M528.95,115.64L551.9,124.18L545.38,143.47C544.85,145.04 545.69,146.74 547.26,147.28C547.58,147.38 547.9,147.43 548.22,147.43C549.47,147.43 550.64,146.65 551.06,145.39L557.53,126.27L580.74,134.9C581.08,135.03 581.43,135.09 581.78,135.09C583,135.09 584.14,134.34 584.59,133.14C585.17,131.58 584.38,129.86 582.83,129.28L559.45,120.59L565.82,101.76C566.35,100.19 565.51,98.48 563.94,97.95C562.37,97.42 560.67,98.26 560.14,99.83L553.83,118.49L531.04,110.02C529.49,109.44 527.76,110.23 527.18,111.78C526.61,113.34 527.4,115.06 528.95,115.64"/>
	<path class="st1" d="M509.89,167.09C511.11,167.09 512.25,166.34 512.7,165.14C513.28,163.58 512.49,161.86 510.93,161.28L487.56,152.59L493.93,133.76C494.46,132.19 493.62,130.48 492.05,129.95C490.48,129.42 488.77,130.26 488.24,131.83L481.93,150.49L459.15,142.02C457.59,141.44 455.87,142.23 455.29,143.78C454.71,145.34 455.5,147.06 457.05,147.64L480.01,156.18L473.49,175.47C472.96,177.04 473.8,178.74 475.37,179.28C475.69,179.38 476.01,179.43 476.33,179.43C477.58,179.43 478.75,178.65 479.17,177.39L485.64,158.27L508.84,166.9C509.19,167.03 509.54,167.09 509.89,167.09"/>
</svg>