<svg id="Слой_1" data-name="Слой 1" xmlns="http://www.w3.org/2000/svg" viewBox="0 0 10.93 12.3"><defs><style>.cls-1{fill:#18293b;}</style></defs><path class="cls-1" d="M303.15,414.72a.68.68,0,0,0-.72.08l-6.83,5.47a.67.67,0,0,0-.26.53.68.68,0,0,0,.26.53l6.83,5.47a.68.68,0,0,0,.43.15.59.59,0,0,0,.29-.07.67.67,0,0,0,.39-.62V415.33A.67.67,0,0,0,303.15,414.72Zm-1,10.12-5.05-4,5.05-4.05Z" transform="translate(-292.61 -414.65)"/><path class="cls-1" d="M293.29,415.33a.68.68,0,0,0-.68.69v9.56a.67.67,0,0,0,.68.68.68.68,0,0,0,.69-.68V416A.69.69,0,0,0,293.29,415.33Z" transform="translate(-292.61 -414.65)"/></svg>