<svg id="Слой_1" data-name="Слой 1" xmlns="http://www.w3.org/2000/svg" viewBox="0 0 12.9 12.91"><defs><style>.cls-1{fill:#18293b;}</style></defs><path class="cls-1" d="M297.08,420.8l-.89-.9-4.32-4.31a.71.71,0,0,1-.14-.89.7.7,0,0,1,1.12-.13l2.24,2.24,2.91,2.91a.71.71,0,0,0,.12.11.87.87,0,0,1,.08-.14c1.7-1.7,3.39-3.4,5.09-5.09a.69.69,0,0,1,.92-.13.7.7,0,0,1,.15,1l-.12.12-5.05,5.05-.11.12.28.27,4.92,4.92a.73.73,0,0,1,.23.72.66.66,0,0,1-.54.51.67.67,0,0,1-.67-.22l-2-2-3.14-3.14-.11-.11a.75.75,0,0,1-.09.15L292.87,427a.69.69,0,0,1-.87.15.7.7,0,0,1-.19-1.08l.12-.12,5-5Z" transform="translate(-291.63 -414.35)"/></svg>