<svg id="Слой_1" data-name="Слой 1" xmlns="http://www.w3.org/2000/svg" viewBox="0 0 26.85 26.85"><defs><style>.cls-1{fill:#ea5a1c;}.cls-2{fill:#fff;}</style></defs><rect class="cls-1" width="26.85" height="26.85"/><path class="cls-2" d="M293.2,420.78v-5.36a1.63,1.63,0,0,1,1.69-1.7h6.4a1.63,1.63,0,0,1,1.66,1.67v10.79a1.62,1.62,0,0,1-1.64,1.65h-6.47a1.62,1.62,0,0,1-1.64-1.65Zm3.24-6h-1.52a.55.55,0,0,0-.63.63v10.68a.54.54,0,0,0,.62.62h6.29c.47,0,.66-.19.66-.65V416c0-.23,0-.45,0-.68a.51.51,0,0,0-.46-.52c-.56,0-1.13,0-1.69,0a.34.34,0,0,0,0,.09,1.09,1.09,0,0,1-1.12,1h-1.05a1.09,1.09,0,0,1-.67-.23A1.13,1.13,0,0,1,296.44,414.81Z" transform="translate(-284.65 -407.35)"/></svg>