<svg id="Слой_1" data-name="Слой 1" xmlns="http://www.w3.org/2000/svg" viewBox="0 0 26.85 26.85"><defs><style>.cls-1{fill:#ea5a1c;}.cls-2{fill:#fff;}</style></defs><rect class="cls-1" width="26.85" height="26.85"/><path class="cls-2" d="M298.34,415.53c.24,0,.48.06.72.12a3.92,3.92,0,0,1,2.9,3.13,4.27,4.27,0,0,1-.28,2.32,11,11,0,0,1-1.51,2.67,19.06,19.06,0,0,1-1.74,2.07.43.43,0,0,1-.59.11l-.09-.07a16.6,16.6,0,0,1-2.91-3.95,5.75,5.75,0,0,1-.65-1.85,3.93,3.93,0,0,1,3.55-4.54h.6Zm-2,3.93a1.76,1.76,0,1,0,1.78-1.74A1.76,1.76,0,0,0,296.32,419.46Z" transform="translate(-284.65 -407.35)"/></svg>