<svg id="Слой_1" data-name="Слой 1" xmlns="http://www.w3.org/2000/svg" viewBox="0 0 26.85 26.85"><defs><style>.cls-1{fill:#ea5a1c;}.cls-2{fill:#fff;}</style></defs><rect class="cls-1" width="26.85" height="26.85"/><path class="cls-2" d="M298.07,425.1h-4.51a1,1,0,0,1-1.08-1.06v-6.52a1,1,0,0,1,1.06-1.07h9.07a1,1,0,0,1,1.05,1.05c0,2.18,0,4.37,0,6.55a1,1,0,0,1-1.05,1.05Zm4.56-6.67-.1.08-2.73,2.3L298.44,422a.49.49,0,0,1-.56.1,1.26,1.26,0,0,1-.28-.19l-4-3.37-.1-.07v5.64h9.12Zm-.47-.95H294l4.08,3.45Z" transform="translate(-284.65 -407.35)"/></svg>