<svg id="Слой_1" data-name="Слой 1" xmlns="http://www.w3.org/2000/svg" viewBox="0 0 11.68 11.68"><defs><style>.cls-1{fill:#eb5b1d;}</style></defs><path class="cls-1" d="M303.91,420.73a5.83,5.83,0,0,1-5.84,5.78h0a5.81,5.81,0,0,1-2.77-.7l-3.06.8.82-3a5.8,5.8,0,1,1,10.85-2.89Zm-1,0a4.82,4.82,0,0,0-1.47-3.4,4.75,4.75,0,0,0-3.4-1.41,4.8,4.8,0,0,0-4.07,7.36l.11.19-.48,1.77,1.82-.48.17.11a4.8,4.8,0,0,0,2.45.67A4.87,4.87,0,0,0,302.94,420.73Zm-2,1.38a1.17,1.17,0,0,1-.08.69,1.51,1.51,0,0,1-1,.68,2.79,2.79,0,0,1-1.74-.36,6.52,6.52,0,0,1-2.47-2.18,2.87,2.87,0,0,1-.59-1.5,1.57,1.57,0,0,1,.51-1.2.49.49,0,0,1,.38-.18h.28c.09,0,.21,0,.32.25s.41,1,.45,1.07a.25.25,0,0,1,0,.25c-.27.56-.57.54-.42.79a3.86,3.86,0,0,0,2,1.72c.15.08.23.06.32,0s.36-.42.46-.57.19-.12.32-.07.85.39,1,.47S301,422,301,422.11Z" transform="translate(-292.24 -414.94)"/></svg>