<svg id="Слой_1" data-name="Слой 1" xmlns="http://www.w3.org/2000/svg" viewBox="0 0 14.81 17.75"><defs><style>.cls-1{fill:#1c2f45;}</style></defs><rect class="cls-1" x="3.59" y="4.45" width="7.63" height="1.11"/><rect class="cls-1" x="3.59" y="7.11" width="7.63" height="1.11"/><path class="cls-1" d="M305.11,411.9H291.05a.37.37,0,0,0-.37.37v12.32s0,.07,0,.11a3.58,3.58,0,0,0,3.12,3.55h0l11,1.39a.74.74,0,0,0,.74-.74V412.27A.37.37,0,0,0,305.11,411.9Zm-1.48,15.61-7.34-4.3c-.17-.11-.31,0-.31.17v1.26h0v.06a1.72,1.72,0,0,1-1.73,1.73,1.67,1.67,0,0,1-1.72-1.67.41.41,0,0,0,0-.11v-10.9h11.1Z" transform="translate(-290.67 -411.9)"/></svg>