<svg id="Слой_1" data-name="Слой 1" xmlns="http://www.w3.org/2000/svg" viewBox="0 0 13.95 11.63"><defs><style>.cls-1{fill:#1c2f45;}</style></defs><path class="cls-1" d="M299.84,423.53l-1.33,1.33V421a.58.58,0,0,0-1.16,0v3.82L296,423.53a.58.58,0,0,0-.82.82l2.32,2.33a.62.62,0,0,0,.19.12.59.59,0,0,0,.22.05.54.54,0,0,0,.22-.05.52.52,0,0,0,.19-.12l2.33-2.33a.59.59,0,0,0,0-.82A.59.59,0,0,0,299.84,423.53Z" transform="translate(-290.95 -415.22)"/><path class="cls-1" d="M304.27,420.19a3.51,3.51,0,0,0-2.85-1.48h-.3a5.23,5.23,0,0,0-9.44-.92,5.22,5.22,0,0,0,.59,6.12.57.57,0,0,0,.82,0,.58.58,0,0,0,.05-.82,3.91,3.91,0,0,1-.89-1.68,4.06,4.06,0,1,1,7.87-2,.58.58,0,0,0,.57.43h.73a2.33,2.33,0,0,1,1.34,4.23.58.58,0,1,0,.66.95A3.48,3.48,0,0,0,304.27,420.19Z" transform="translate(-290.95 -415.22)"/></svg>