<svg id="Слой_1" data-name="Слой 1" xmlns="http://www.w3.org/2000/svg" viewBox="0 0 17.03 17.03"><defs><style>.cls-1{fill:#e52320;}</style></defs><path class="cls-1" d="M298.07,412.26a8.52,8.52,0,1,0,8.52,8.55A8.52,8.52,0,0,0,298.07,412.26Zm0,15.95a7.44,7.44,0,1,1,7.44-7.44A7.44,7.44,0,0,1,298.07,428.21Z" transform="translate(-289.56 -412.26)"/><path class="cls-1" d="M297.48,421.11c.11.72.16.61.76.62.25,0,.33-.08.37-.32.11-.59.21-1.19.32-1.78a12.68,12.68,0,0,0,.31-3.08c0-.3-.09-.39-.4-.39h-1.62c-.17,0-.3.09-.3.25a9.88,9.88,0,0,0,0,1.54C297.08,419,297.31,420.05,297.48,421.11Z" transform="translate(-289.56 -412.26)"/><path class="cls-1" d="M298.05,422.9a1.29,1.29,0,0,0-1.22,1.25,1.24,1.24,0,0,0,2.48,0A1.3,1.3,0,0,0,298.05,422.9Z" transform="translate(-289.56 -412.26)"/></svg>