<svg id="Слой_1" data-name="Слой 1" xmlns="http://www.w3.org/2000/svg" viewBox="0 0 10.5 10.5"><defs><style>.cls-1{fill:#eb5b1d;}</style></defs><path class="cls-1" d="M303.32,424.9A1.13,1.13,0,0,1,302.2,426H294a1.14,1.14,0,0,1-1.13-1.13v-8.25a1.13,1.13,0,0,1,1.13-1.12h8.25a1.12,1.12,0,0,1,1.12,1.12Zm-1.12-8.11a.14.14,0,0,0-.14-.14h-8a.14.14,0,0,0-.14.14v8a.14.14,0,0,0,.14.14h8a.14.14,0,0,0,.14-.14Zm-1.81,2.86a.28.28,0,0,1,.2.48l-2.32,2.31a.27.27,0,0,1-.39,0l-2.32-2.31a.28.28,0,0,1,.2-.48Z" transform="translate(-292.82 -415.53)"/></svg>