<svg id="Слой_1" data-name="Слой 1" xmlns="http://www.w3.org/2000/svg" viewBox="0 0 13.02 9.49"><defs><style>.cls-1{fill:#ea5a1c;}</style></defs><path class="cls-1" d="M296.63,416h-5.07v4.44h2.88a3.33,3.33,0,0,1-2.6,3.28s0,.09,0,1.77c4.3-.82,4.75-4,4.79-5h0v0a2.07,2.07,0,0,0,0-.28V416Z" transform="translate(-291.56 -416.03)"/><path class="cls-1" d="M304.58,420.16V416h-5.07v4.44h2.89a3.34,3.34,0,0,1-2.6,3.28s0,.09,0,1.77c4.29-.82,4.74-4,4.78-5h0v0A2.07,2.07,0,0,0,304.58,420.16Z" transform="translate(-291.56 -416.03)"/></svg>