<svg id="Слой_1" data-name="Слой 1" xmlns="http://www.w3.org/2000/svg" viewBox="0 0 158.81 20.15"><defs><style>.cls-1{fill:#eb5b1d;}.cls-2{fill:#fff;}</style></defs><path class="cls-1" d="M218.67,415.07h12.46v2.84h-8.91v3.17h4.28c3.72,0,5.73,1.59,5.73,4.55S230,430.5,226,430.5h-7.32Zm7.12,12.78c1.83,0,2.82-.72,2.82-2.11s-1-2-2.82-2h-3.57v4.14Z" transform="translate(-218.67 -410.7)"/><path class="cls-1" d="M248.3,415.07l-6.57,12.21c-1.28,2.38-3.11,3.57-5.18,3.57a6.44,6.44,0,0,1-2.51-.53l.86-2.71a5.23,5.23,0,0,0,1.54.29,2.45,2.45,0,0,0,2.16-1.33l.13-.17-6.08-11.33h3.81l4.1,8.29,4.24-8.29Z" transform="translate(-218.67 -410.7)"/><path class="cls-1" d="M252.53,415.07l3.2,4.67,3.2-4.67h4.19L258,422.45l5.56,8.05h-4.21l-3.6-5.12-3.55,5.12h-4.12l5.51-7.89-5.16-7.54Z" transform="translate(-218.67 -410.7)"/><path class="cls-2" d="M279.23,430.5l0-9.24-4.54,7.61h-1.59l-4.54-7.43v9.06h-3.35V415.07h2.95l5.78,9.59,5.69-9.59h2.95l0,15.43Z" transform="translate(-218.67 -410.7)"/><path class="cls-2" d="M298.37,427.63v2.87H286.42V415.07h11.67v2.86H290v3.35h7.17v2.78H290v3.57Z" transform="translate(-218.67 -410.7)"/><path class="cls-2" d="M301.26,415.07h3.55v10.05l7.36-10.05h3.36V430.5H312v-10l-7.37,10h-3.37Zm2.84-4.37h2.45c0,1.06.62,1.61,1.83,1.61s1.81-.55,1.83-1.61h2.45c0,2.16-1.39,3.37-4.28,3.37S304.13,412.86,304.1,410.7Z" transform="translate(-218.67 -410.7)"/><path class="cls-2" d="M318.3,422.78c0-4.65,3.58-8,8.38-8a7.94,7.94,0,0,1,6.35,2.74l-2.29,2.11a5,5,0,0,0-3.88-1.81,4.94,4.94,0,1,0,0,9.88,4.94,4.94,0,0,0,3.88-1.83L333,428a7.93,7.93,0,0,1-6.37,2.75C321.88,430.76,318.3,427.43,318.3,422.78Z" transform="translate(-218.67 -410.7)"/><path class="cls-2" d="M347,418h-4.94V430.5h-3.53V418h-4.91v-2.91H347Z" transform="translate(-218.67 -410.7)"/><path class="cls-2" d="M361.21,427.63v2.87H349.26V415.07h11.66v2.86h-8.11v3.35H360v2.78h-7.16v3.57Z" transform="translate(-218.67 -410.7)"/><path class="cls-2" d="M377.48,420.67c0,3.44-2.58,5.57-6.7,5.57h-3.11v4.26H364.1V415.07h6.68C374.9,415.07,377.48,417.2,377.48,420.67Zm-3.62,0c0-1.7-1.1-2.69-3.28-2.69h-2.91v5.35h2.91C372.76,423.33,373.86,422.34,373.86,420.67Z" transform="translate(-218.67 -410.7)"/></svg>