<svg id="Слой_1" data-name="Слой 1" xmlns="http://www.w3.org/2000/svg" viewBox="0 0 14.03 9.74"><defs><style>.cls-1{fill:#eb5b1d;}</style></defs><path class="cls-1" d="M303.36,415.91H292.79a1.66,1.66,0,0,0-1.73,1.74v6.25a1.66,1.66,0,0,0,1.73,1.74h10.6a1.65,1.65,0,0,0,1.7-1.7v-6.29A1.66,1.66,0,0,0,303.36,415.91Zm.65,8a.55.55,0,0,1-.61.61H292.74a.55.55,0,0,1-.6-.61v-6.34a.56.56,0,0,1,.61-.62H303.4a.56.56,0,0,1,.61.62Z" transform="translate(-291.06 -415.91)"/><path class="cls-1" d="M302.47,418.09a.81.81,0,0,0-.47.16c-.72.51-1.42,1.05-2.13,1.58l-1.79,1.35-.59-.44-3.34-2.51a.58.58,0,0,0-.5-.14.55.55,0,0,0-.41.44.51.51,0,0,0,.24.55l4.16,3.13a.59.59,0,0,0,.87,0l3.11-2.33,1.09-.82a.52.52,0,0,0,.19-.59A.46.46,0,0,0,302.47,418.09Z" transform="translate(-291.06 -415.91)"/></svg>