<svg id="Слой_1" data-name="Слой 1" xmlns="http://www.w3.org/2000/svg" viewBox="0 0 9.09 13.16"><defs><style>.cls-1{fill:#eb5b1d;}</style></defs><path class="cls-1" d="M293.53,420.78v-5a1.52,1.52,0,0,1,1.58-1.59h6a1.52,1.52,0,0,1,1.55,1.56v10.07a1.51,1.51,0,0,1-1.53,1.54h-6a1.51,1.51,0,0,1-1.53-1.54Zm3-5.57h-1.42a.52.52,0,0,0-.59.59v10a.51.51,0,0,0,.58.58H301c.43,0,.61-.18.61-.61v-9.39c0-.22,0-.43,0-.64a.47.47,0,0,0-.43-.48c-.53,0-1.05,0-1.58,0a.31.31,0,0,0,0,.09,1,1,0,0,1-1,.92h-1a1,1,0,0,1-.63-.22A1.08,1.08,0,0,1,296.55,415.21Z" transform="translate(-293.53 -414.19)"/></svg>