<svg id="Слой_1" data-name="Слой 1" xmlns="http://www.w3.org/2000/svg" viewBox="0 0 226.84 46.35"><defs><style>.cls-1{fill:#eb5b1d;}.cls-2{fill:#19293b;}</style></defs><path class="cls-1" d="M184.65,403.15h15.82v3.61H189.16v4h5.43c4.73,0,7.28,2,7.28,5.77,0,3.92-2.88,6.19-7.92,6.19h-9.3Zm9,16.24c2.32,0,3.58-.93,3.58-2.69s-1.2-2.58-3.58-2.58h-4.54v5.27Z" transform="translate(-184.65 -397.6)"/><path class="cls-1" d="M222.28,403.15l-8.34,15.51c-1.62,3-3.95,4.54-6.58,4.54a8.32,8.32,0,0,1-3.19-.68l1.09-3.44a6.93,6.93,0,0,0,2,.36,3.08,3.08,0,0,0,2.74-1.68l.17-.22-7.73-14.39h4.85l5.21,10.53,5.37-10.53Z" transform="translate(-184.65 -397.6)"/><path class="cls-1" d="M227.66,403.15l4.06,5.93,4.06-5.93h5.32l-6.52,9.38,7,10.22h-5.35l-4.56-6.5-4.51,6.5H222l7-10-6.56-9.57Z" transform="translate(-184.65 -397.6)"/><path class="cls-2" d="M261.57,422.75l0-11.73-5.77,9.66h-2L248,411.24v11.51h-4.26v-19.6h3.75l7.34,12.18L262,403.15h3.76l0,19.6Z" transform="translate(-184.65 -397.6)"/><path class="cls-2" d="M285.87,419.11v3.64H270.7v-19.6h14.81v3.64H275.2V411h9.1v3.53h-9.1v4.54Z" transform="translate(-184.65 -397.6)"/><path class="cls-2" d="M289.54,403.15h4.51v12.77l9.35-12.77h4.26v19.6h-4.48V410l-9.36,12.74h-4.28Zm3.61-5.55h3.11c0,1.35.78,2,2.32,2s2.3-.7,2.33-2H304c0,2.75-1.77,4.29-5.44,4.29S293.18,400.35,293.15,397.6Z" transform="translate(-184.65 -397.6)"/><path class="cls-2" d="M311.18,413c0-5.91,4.54-10.14,10.64-10.14a10.13,10.13,0,0,1,8.07,3.47L327,409a6.32,6.32,0,0,0-4.93-2.29,6.27,6.27,0,1,0,0,12.54A6.25,6.25,0,0,0,327,416.9l2.91,2.68a10.07,10.07,0,0,1-8.09,3.5C315.72,423.08,311.18,418.86,311.18,413Z" transform="translate(-184.65 -397.6)"/><path class="cls-2" d="M347.64,406.84h-6.27v15.91h-4.48V406.84h-6.25v-3.69h17Z" transform="translate(-184.65 -397.6)"/><path class="cls-2" d="M365.67,419.11v3.64H350.5v-19.6h14.81v3.64H355V411h9.1v3.53H355v4.54Z" transform="translate(-184.65 -397.6)"/><path class="cls-2" d="M386.34,410.26c0,4.37-3.28,7.08-8.52,7.08h-3.94v5.41h-4.54v-19.6h8.48C383.06,403.15,386.34,405.86,386.34,410.26Zm-4.6,0c0-2.16-1.4-3.42-4.17-3.42h-3.69v6.81h3.69C380.34,413.65,381.74,412.39,381.74,410.26Z" transform="translate(-184.65 -397.6)"/><path class="cls-2" d="M184.65,442.37v-6.55h4v.85h-3.06v1.79h1.45a2.46,2.46,0,0,1,1.67.52,1.77,1.77,0,0,1,.59,1.4,1.84,1.84,0,0,1-.6,1.44,2.34,2.34,0,0,1-1.66.55Zm1-.83h1.45a1.31,1.31,0,0,0,.95-.35,1.09,1.09,0,0,0,.34-.82,1,1,0,0,0-.34-.77,1.36,1.36,0,0,0-.95-.31h-1.45Z" transform="translate(-184.65 -397.6)"/><path class="cls-2" d="M191.14,442.46v-.87h.39a.76.76,0,0,0,.52-.17,1.09,1.09,0,0,0,.31-.45l.1-.24-2.28-4.91h1l1.7,3.79,1.51-3.79h1l-2.24,5.41a2.74,2.74,0,0,1-.18.38,1.58,1.58,0,0,1-.22.33,1.3,1.3,0,0,1-.3.28,2.18,2.18,0,0,1-.4.17,2.13,2.13,0,0,1-.53.07Z" transform="translate(-184.65 -397.6)"/><path class="cls-2" d="M197.23,435.82l1.55,2.56h.05l1.55-2.56h1.14l-2,3.27,2,3.28h-1.14l-1.56-2.53h-.05l-1.55,2.53h-1.14l2.06-3.28-2.05-3.27Z" transform="translate(-184.65 -397.6)"/><path class="cls-2" d="M206.7,435.82v.85h-3.06v5.7h-1v-6.55Z" transform="translate(-184.65 -397.6)"/><path class="cls-2" d="M207.76,442.37h-1l2.33-6.55h1.13l2.33,6.55h-1l-.59-1.74h-2.53Zm.88-2.57h2l-.95-2.79h-.05Z" transform="translate(-184.65 -397.6)"/><path class="cls-2" d="M213.14,442.37v-.86h.19a.84.84,0,0,0,.4-.09,1,1,0,0,0,.29-.28,1.68,1.68,0,0,0,.2-.5,4.89,4.89,0,0,0,.11-.73c0-.28.06-.61.07-1l.11-3.08h4.1v6.55h-1v-5.71h-2.21l-.1,2.5c0,.37,0,.69-.07,1a6.17,6.17,0,0,1-.14.79,2.31,2.31,0,0,1-.23.63,1.53,1.53,0,0,1-.34.45,1.26,1.26,0,0,1-.49.28,2.06,2.06,0,0,1-.64.09Z" transform="translate(-184.65 -397.6)"/><path class="cls-2" d="M219.89,436.67v-.85h5v.85h-2v5.7h-1v-5.7Z" transform="translate(-184.65 -397.6)"/><path class="cls-2" d="M226.18,442.37v-6.55h4.07v.85h-3.09v2H230v.84h-2.87v2h3.12v.85Z" transform="translate(-184.65 -397.6)"/><path class="cls-2" d="M231.73,442.37v-6.55H234a2.92,2.92,0,0,1,1,.16,1.88,1.88,0,0,1,.71.45,1.84,1.84,0,0,1,.41.67,2.32,2.32,0,0,1,.15.84,2.24,2.24,0,0,1-.15.84,2,2,0,0,1-.41.68,1.82,1.82,0,0,1-.71.44,2.72,2.72,0,0,1-1,.17h-1.33v2.3Zm1-3.14H234a1.35,1.35,0,0,0,1-.35,1.31,1.31,0,0,0,.33-.94A1.29,1.29,0,0,0,235,437a1.38,1.38,0,0,0-1-.34h-1.23Z" transform="translate(-184.65 -397.6)"/><path class="cls-2" d="M243,438h-1a1.52,1.52,0,0,0-.58-1,1.81,1.81,0,0,0-1.1-.35,1.83,1.83,0,0,0-1.4.64,2.25,2.25,0,0,0-.41.77,3.86,3.86,0,0,0-.14,1,3.43,3.43,0,0,0,.15,1.06,2.14,2.14,0,0,0,.41.78,1.7,1.7,0,0,0,.61.46,1.85,1.85,0,0,0,.78.16,1.77,1.77,0,0,0,1.09-.34,1.46,1.46,0,0,0,.59-.95h1a2.6,2.6,0,0,1-.89,1.59,2.75,2.75,0,0,1-1.79.61,3,3,0,0,1-.95-.15,2.31,2.31,0,0,1-.8-.44,2.74,2.74,0,0,1-.62-.69,2.91,2.91,0,0,1-.4-.93,4.29,4.29,0,0,1-.14-1.16,4.15,4.15,0,0,1,.22-1.4,2.94,2.94,0,0,1,.6-1.06,2.55,2.55,0,0,1,.93-.66,3,3,0,0,1,2.94.35A2.53,2.53,0,0,1,243,438Z" transform="translate(-184.65 -397.6)"/><path class="cls-2" d="M248.17,442.37,246,439.43h-.67v2.94h-1v-6.55h1v2.77h.34l2.52-2.77h1.21l-2.69,3,2.67,3.59Z" transform="translate(-184.65 -397.6)"/><path class="cls-2" d="M250.53,435.82h1v4.81h.06l3.3-4.81h.9v6.55h-1v-4.8h-.06l-3.29,4.8h-.9Z" transform="translate(-184.65 -397.6)"/><path class="cls-2" d="M257.36,442.37v-6.55h4.06v.85h-3.08v2h2.87v.84h-2.87v2h3.12v.85Z" transform="translate(-184.65 -397.6)"/><path class="cls-2" d="M265.91,442.46v-.87h.39a.76.76,0,0,0,.52-.17,1.09,1.09,0,0,0,.31-.45l.1-.24L265,435.82h1l1.69,3.79,1.52-3.79h1L268,441.23a2.74,2.74,0,0,1-.18.38,2.1,2.1,0,0,1-.22.33,1.54,1.54,0,0,1-.3.28,2.18,2.18,0,0,1-.4.17,2.13,2.13,0,0,1-.53.07Z" transform="translate(-184.65 -397.6)"/><path class="cls-2" d="M276.37,438h-1a1.52,1.52,0,0,0-.58-1,1.87,1.87,0,0,0-1.87-.18,1.68,1.68,0,0,0-.62.47,2.09,2.09,0,0,0-.41.77,3.51,3.51,0,0,0-.15,1,3.43,3.43,0,0,0,.15,1.06,2.14,2.14,0,0,0,.41.78,1.65,1.65,0,0,0,.62.46,1.77,1.77,0,0,0,.77.16,1.75,1.75,0,0,0,1.09-.34,1.46,1.46,0,0,0,.59-.95h1a2.6,2.6,0,0,1-.89,1.59,2.73,2.73,0,0,1-1.79.61,3,3,0,0,1-.95-.15,2.51,2.51,0,0,1-.8-.44,2.74,2.74,0,0,1-.62-.69,3.15,3.15,0,0,1-.4-.93,4.73,4.73,0,0,1-.14-1.16,4.15,4.15,0,0,1,.22-1.4,3,3,0,0,1,.61-1.06,2.44,2.44,0,0,1,.92-.66,2.8,2.8,0,0,1,1.16-.24,2.77,2.77,0,0,1,1.78.59A2.53,2.53,0,0,1,276.37,438Z" transform="translate(-184.65 -397.6)"/><path class="cls-2" d="M277.23,442.37v-.86h.19a.84.84,0,0,0,.4-.09,1,1,0,0,0,.29-.28,2,2,0,0,0,.2-.5,4.89,4.89,0,0,0,.11-.73c0-.28.05-.61.07-1l.11-3.08h4.1v6.55h-1v-5.71h-2.21l-.1,2.5c0,.37,0,.69-.07,1a6.17,6.17,0,0,1-.14.79,2.31,2.31,0,0,1-.23.63,1.72,1.72,0,0,1-.34.45,1.26,1.26,0,0,1-.49.28,2.06,2.06,0,0,1-.64.09Z" transform="translate(-184.65 -397.6)"/><path class="cls-2" d="M284.76,442.46v-.87h.38a.78.78,0,0,0,.53-.17A1.09,1.09,0,0,0,286,441l.09-.24-2.27-4.91h1l1.7,3.79,1.52-3.79h1l-2.24,5.41c-.06.15-.13.28-.18.38a2.1,2.1,0,0,1-.22.33,1.54,1.54,0,0,1-.3.28,1.8,1.8,0,0,1-.93.24Z" transform="translate(-184.65 -397.6)"/><path class="cls-2" d="M294.21,435.82v.85h-3.06v5.7h-1v-6.55Z" transform="translate(-184.65 -397.6)"/><path class="cls-2" d="M295.49,435.82h1v4.81h.06l3.3-4.81h.9v6.55h-1v-4.8h-.06l-3.29,4.8h-.9Z" transform="translate(-184.65 -397.6)"/><path class="cls-2" d="M304.37,444v-2.42h.43a1.64,1.64,0,0,0,.31-.37,3.53,3.53,0,0,0,.27-.55,5.55,5.55,0,0,0,.21-.85,9.4,9.4,0,0,0,.12-1.17l.15-2.77h4v5.71h.73v2.41h-.93v-1.57h-4.35V444Zm1.58-2.42h3v-4.86h-2.17l-.1,1.92A6.51,6.51,0,0,1,306,441.53Z" transform="translate(-184.65 -397.6)"/><path class="cls-2" d="M311.35,442.37v-.86h.19a.82.82,0,0,0,.4-.09.86.86,0,0,0,.29-.28,1.68,1.68,0,0,0,.2-.5,6.54,6.54,0,0,0,.12-.73c0-.28.05-.61.06-1l.11-3.08h4.1v6.55h-1v-5.71h-2.21l-.1,2.5c0,.37,0,.69-.07,1a6.17,6.17,0,0,1-.14.79,2.71,2.71,0,0,1-.22.63,1.75,1.75,0,0,1-.35.45,1.22,1.22,0,0,1-.48.28,2.17,2.17,0,0,1-.65.09Z" transform="translate(-184.65 -397.6)"/><path class="cls-2" d="M322.74,442.37h-1v-2.48h-1.39l-1.31,2.48h-1.12l1.44-2.65a1.75,1.75,0,0,1-.89-.7,2.12,2.12,0,0,1-.3-1.15,2.45,2.45,0,0,1,.14-.83,1.82,1.82,0,0,1,1.12-1.07,3,3,0,0,1,1-.15h2.31Zm-1-3.33v-2.37h-1.22a1.47,1.47,0,0,0-1,.31,1.18,1.18,0,0,0-.33.89q0,1.17,1.35,1.17Z" transform="translate(-184.65 -397.6)"/><path class="cls-2" d="M326.88,442.37v-6.55h2.37a2.75,2.75,0,0,1,.9.13,1.66,1.66,0,0,1,.64.37,1.56,1.56,0,0,1,.38.54,1.91,1.91,0,0,1,.13.68,1.53,1.53,0,0,1-.09.54,1.22,1.22,0,0,1-.24.4,1.27,1.27,0,0,1-.34.27,1.49,1.49,0,0,1-.43.17V439a1.22,1.22,0,0,1,.49.12,1.6,1.6,0,0,1,.43.32,1.47,1.47,0,0,1,.31.5,1.87,1.87,0,0,1,.12.68,1.82,1.82,0,0,1-.13.7,1.53,1.53,0,0,1-.4.55,1.64,1.64,0,0,1-.68.37,3.22,3.22,0,0,1-1,.14Zm1-3.72h1.31a1.23,1.23,0,0,0,.83-.28.92.92,0,0,0,.34-.75.88.88,0,0,0-.29-.69,1.23,1.23,0,0,0-.86-.27h-1.33Zm0,2.87h1.41a1.56,1.56,0,0,0,1-.26.86.86,0,0,0,.32-.7,1.08,1.08,0,0,0-.35-.81,1.32,1.32,0,0,0-.93-.33h-1.44Z" transform="translate(-184.65 -397.6)"/><path class="cls-2" d="M333.43,442.37h-1l2.34-6.55h1.12l2.34,6.55h-1l-.59-1.74H334Zm.88-2.57h2l-.95-2.79h-.05Z" transform="translate(-184.65 -397.6)"/><path class="cls-2" d="M339.38,435.82h1v5.69h2.14v-5.69h1v5.69h2.13v-5.69h1v6.55h-7.17Z" transform="translate(-184.65 -397.6)"/><path class="cls-2" d="M348.24,442.37v-6.55h4.06v.85h-3.08v2h2.87v.84h-2.87v2h3.12v.85Z" transform="translate(-184.65 -397.6)"/><path class="cls-2" d="M357.83,435.82v.85h-3.06v5.7h-1v-6.55Z" transform="translate(-184.65 -397.6)"/><path class="cls-2" d="M364.25,437.69a4.6,4.6,0,0,1,0,2.81,3,3,0,0,1-.61,1.06,2.55,2.55,0,0,1-.93.66,2.8,2.8,0,0,1-1.16.24,2.85,2.85,0,0,1-1.17-.24,2.6,2.6,0,0,1-.92-.66,3,3,0,0,1-.61-1.06,4.6,4.6,0,0,1,0-2.81,3,3,0,0,1,.61-1.06,2.6,2.6,0,0,1,.92-.66,2.85,2.85,0,0,1,1.17-.24,2.8,2.8,0,0,1,1.16.24,2.55,2.55,0,0,1,.93.66A3,3,0,0,1,364.25,437.69Zm-.9,2.46a3.48,3.48,0,0,0,.15-1.06,3.41,3.41,0,0,0-.15-1,2.22,2.22,0,0,0-.41-.78,1.87,1.87,0,0,0-1.39-.63,1.85,1.85,0,0,0-.78.17,1.82,1.82,0,0,0-.61.46,2.22,2.22,0,0,0-.41.78,3.41,3.41,0,0,0-.15,1,3.48,3.48,0,0,0,.15,1.06,2.09,2.09,0,0,0,.41.77,1.73,1.73,0,0,0,.61.47,1.85,1.85,0,0,0,.78.16,1.77,1.77,0,0,0,.77-.16,1.68,1.68,0,0,0,.62-.47A2.09,2.09,0,0,0,363.35,440.15Z" transform="translate(-184.65 -397.6)"/><path class="cls-2" d="M368.4,442.37v-6.55h4v.85h-3.07v1.79h1.45a2.44,2.44,0,0,1,1.67.52,1.74,1.74,0,0,1,.6,1.4,1.84,1.84,0,0,1-.6,1.44,2.37,2.37,0,0,1-1.67.55Zm1-.83h1.45a1.29,1.29,0,0,0,.95-.35,1.1,1.1,0,0,0,.35-.82,1,1,0,0,0-.35-.77,1.34,1.34,0,0,0-.95-.31h-1.45Z" transform="translate(-184.65 -397.6)"/><path class="cls-2" d="M374.42,435.82h1v4.81h.06l3.3-4.81h.9v6.55h-1v-4.8h-.06l-3.29,4.8h-.9Z" transform="translate(-184.65 -397.6)"/><path class="cls-2" d="M383.42,442.46a2.55,2.55,0,0,1-1.62-.5,1.68,1.68,0,0,1-.67-1.3h1a.88.88,0,0,0,.39.69,1.51,1.51,0,0,0,.89.26,1.46,1.46,0,0,0,.95-.3,1,1,0,0,0,.36-.77,1,1,0,0,0-.37-.81,1.59,1.59,0,0,0-1-.31h-.55v-.81h.55a1.33,1.33,0,0,0,.88-.28,1.06,1.06,0,0,0,0-1.5,1.16,1.16,0,0,0-.8-.27,1.32,1.32,0,0,0-.84.26.87.87,0,0,0-.37.7h-1a1.6,1.6,0,0,1,.31-.93,1.93,1.93,0,0,1,.78-.63,2.59,2.59,0,0,1,1.09-.23,2.32,2.32,0,0,1,.84.15,1.84,1.84,0,0,1,.64.38,1.71,1.71,0,0,1,.54,1.26,1.42,1.42,0,0,1-1.11,1.44V439a1.62,1.62,0,0,1,1,.52,1.58,1.58,0,0,1,.35,1,1.73,1.73,0,0,1-.29,1,2,2,0,0,1-.82.67A2.68,2.68,0,0,1,383.42,442.46Z" transform="translate(-184.65 -397.6)"/><path class="cls-2" d="M387.17,442.37v-6.55h1v2.85h3.23v-2.85h1v6.55h-1v-2.86h-3.23v2.86Z" transform="translate(-184.65 -397.6)"/><path class="cls-2" d="M394,442.37v-6.55H398v.85h-3.08v2h2.87v.84h-2.87v2h3.12v.85Z" transform="translate(-184.65 -397.6)"/><path class="cls-2" d="M404.89,438h-1a1.52,1.52,0,0,0-.58-1,1.78,1.78,0,0,0-1.1-.35,1.85,1.85,0,0,0-.78.17,1.73,1.73,0,0,0-.61.47,2.09,2.09,0,0,0-.41.77,3.51,3.51,0,0,0-.15,1,3.43,3.43,0,0,0,.15,1.06,2.14,2.14,0,0,0,.41.78,1.7,1.7,0,0,0,.61.46,1.85,1.85,0,0,0,.78.16,1.75,1.75,0,0,0,1.09-.34,1.46,1.46,0,0,0,.59-.95h1a2.6,2.6,0,0,1-.89,1.59,2.73,2.73,0,0,1-1.79.61,3,3,0,0,1-.95-.15,2.51,2.51,0,0,1-.8-.44,2.74,2.74,0,0,1-.62-.69,3.15,3.15,0,0,1-.4-.93,4.73,4.73,0,0,1-.14-1.16,4.15,4.15,0,0,1,.22-1.4,2.82,2.82,0,0,1,.61-1.06,2.44,2.44,0,0,1,.92-.66,2.8,2.8,0,0,1,1.16-.24,2.77,2.77,0,0,1,1.78.59A2.53,2.53,0,0,1,404.89,438Z" transform="translate(-184.65 -397.6)"/><path class="cls-2" d="M406.74,442.37h-1l2.34-6.55h1.13l2.33,6.55h-1l-.59-1.74h-2.53Zm.88-2.57h2l-.95-2.79h-.05Z" transform="translate(-184.65 -397.6)"/></svg>