<svg id="Слой_1" data-name="Слой 1" xmlns="http://www.w3.org/2000/svg" viewBox="0 0 14.98 9.03"><defs><style>.cls-1{fill:#fff;}</style></defs><path class="cls-1" d="M291.1,417.29h13.95a.52.52,0,0,0,0-1H291.1a.52.52,0,0,0,0,1Z" transform="translate(-290.59 -416.26)"/><path class="cls-1" d="M305.05,420.26H291.1a.52.52,0,0,0,0,1h13.95a.52.52,0,0,0,0-1Z" transform="translate(-290.59 -416.26)"/><path class="cls-1" d="M305.05,424.26H291.1a.52.52,0,0,0,0,1h13.95a.52.52,0,0,0,0-1Z" transform="translate(-290.59 -416.26)"/></svg>