<svg id="Слой_1" data-name="Слой 1" xmlns="http://www.w3.org/2000/svg" viewBox="0 0 11.03 15.97"><defs><style>.cls-1{fill:#ea5a1c;}</style></defs><path class="cls-1" d="M292.56,420.78v-6.07a1.83,1.83,0,0,1,1.91-1.92h7.24a1.84,1.84,0,0,1,1.88,1.88V426.9a1.83,1.83,0,0,1-1.86,1.86h-7.31a1.83,1.83,0,0,1-1.86-1.86Zm3.67-6.76H294.5a.63.63,0,0,0-.72.72v12.09a.62.62,0,0,0,.71.7h7.13c.52,0,.75-.22.75-.74v-11.4c0-.26,0-.51,0-.77a.57.57,0,0,0-.52-.59c-.64,0-1.27,0-1.92,0,0,.05,0,.08,0,.11a1.23,1.23,0,0,1-1.26,1.12h-1.19a1.18,1.18,0,0,1-.76-.27A1.28,1.28,0,0,1,296.23,414Z" transform="translate(-292.56 -412.79)"/></svg>