<svg id="Слой_1" data-name="Слой 1" xmlns="http://www.w3.org/2000/svg" viewBox="0 0 15 15.07"><defs><style>.cls-1{fill:#ea5a1c;}</style></defs><path class="cls-1" d="M300.75,423.83a3.75,3.75,0,1,1-3-6.35,3.73,3.73,0,0,1,4,3.09,15.07,15.07,0,0,1,.07,1.65,1.13,1.13,0,1,0,2.25,0,7.56,7.56,0,0,0-.66-3.75,6,6,0,1,0-5.59,8.73l.23,0v1.54a19.62,19.62,0,0,1-1.94-.32,7.49,7.49,0,0,1-5.54-7.18,7.57,7.57,0,0,1,5.66-7.33,7.49,7.49,0,0,1,9.26,6.33,12.9,12.9,0,0,1,.06,2.24,2.46,2.46,0,0,1-1.69,2.27,2.49,2.49,0,0,1-2.73-.56C301,424.11,300.89,424,300.75,423.83Zm-.44-2.63a2.25,2.25,0,1,0-2.22,2.26A2.26,2.26,0,0,0,300.31,421.2Z" transform="translate(-290.56 -413.7)"/></svg>