<svg id="Слой_1" data-name="Слой 1" xmlns="http://www.w3.org/2000/svg" viewBox="0 0 9.1 13.17"><defs><style>.cls-1{fill:#fff;}</style></defs><path class="cls-1" d="M293.53,420.78v-5a1.52,1.52,0,0,1,1.58-1.59h6a1.51,1.51,0,0,1,1.54,1.55v10.08a1.51,1.51,0,0,1-1.53,1.54h-6a1.51,1.51,0,0,1-1.53-1.54Zm3-5.57h-1.42a.52.52,0,0,0-.59.59v10a.52.52,0,0,0,.58.59H301c.43,0,.61-.19.61-.62v-9.4c0-.21,0-.42,0-.63a.49.49,0,0,0-.43-.49H299.6a.25.25,0,0,0,0,.08,1,1,0,0,1-1,.93h-1a1,1,0,0,1-.63-.22A1.08,1.08,0,0,1,296.55,415.21Z" transform="translate(-293.53 -414.19)"/></svg>