<svg id="Слой_1" data-name="Слой 1" xmlns="http://www.w3.org/2000/svg" viewBox="0 0 51.02 51.02"><defs><style>.cls-1{fill:#ea5a1c;}</style></defs><path class="cls-1" d="M295,410.9a4.49,4.49,0,0,1,7.61,3c.12,2.43-2.31,4.66-3.36,5.51l-3.12,2.75v3.12h3.12v-1.7l2-1.74c1.74-1.42,4.66-4.37,4.5-8.06a7.65,7.65,0,0,0-12.92-5.14,7.47,7.47,0,0,0-2.35,5.51h3.12A4.44,4.44,0,0,1,295,410.9Z" transform="translate(-272.56 -395.27)"/><rect class="cls-1" x="23.57" y="33.32" width="3.12" height="3.24"/><path class="cls-1" d="M272.56,395.27v51h51v-51Zm47.79,47.78H275.8V398.51h44.55Z" transform="translate(-272.56 -395.27)"/></svg>