<svg xmlns="http://www.w3.org/2000/svg" width="47.99" height="34.97" viewBox="0 0 47.99 34.97">
	<style type="text/css">
		.st0{fill:#241f20;}
	</style>
	<path class="st0" d="M18.68,0L0,0L0,16.35L10.62,16.35C10.52,26.53 1.04,28.45 1.04,28.45C1.04,28.45 0.99,28.79 1.04,34.97C16.85,31.94 18.54,20.04 18.68,16.35L18.68,16.35L18.68,16.24C18.7,15.61 18.68,15.22 18.68,15.22L18.68,0Z"/>
	<path class="st0" d="M47.98,15.21L47.98,0L29.3,0L29.3,16.34L39.93,16.34C39.83,26.53 30.34,28.45 30.34,28.45C30.34,28.45 30.3,28.79 30.34,34.97C46.16,31.94 47.84,20.04 47.98,16.34L47.99,16.34L47.99,16.24C48.01,15.61 47.98,15.21 47.98,15.21"/>
</svg>