<svg id="Слой_1" data-name="Слой 1" xmlns="http://www.w3.org/2000/svg" viewBox="0 0 96.86 100.24"><defs><style>.cls-1{fill:#c5cfd9;}</style></defs><path class="cls-1" d="M284.15,407a1,1,0,0,0-1-1H257a1,1,0,0,0-1,1v22.37a1,1,0,0,0,1,1h26.19a1,1,0,0,0,1-1Zm-2,21.37H258V408h24.19Z" transform="translate(-249.65 -370.66)"/><path class="cls-1" d="M257,437.06h15.63a1,1,0,0,0,0-2H257a1,1,0,1,0,0,2Z" transform="translate(-249.65 -370.66)"/><path class="cls-1" d="M283.15,435.06h-7.34a1,1,0,0,0,0,2h7.34a1,1,0,0,0,0-2Z" transform="translate(-249.65 -370.66)"/><path class="cls-1" d="M283.15,441.38h-9.84a1,1,0,0,0,0,2h9.84a1,1,0,0,0,0-2Z" transform="translate(-249.65 -370.66)"/><path class="cls-1" d="M257,443.16h13.42a1,1,0,0,0,0-2H257a1,1,0,1,0,0,2Z" transform="translate(-249.65 -370.66)"/><path class="cls-1" d="M257,449.42h9.59a1,1,0,0,0,0-2H257a1,1,0,1,0,0,2Z" transform="translate(-249.65 -370.66)"/><path class="cls-1" d="M283.15,447.42H270.06a1,1,0,0,0,0,2h13.09a1,1,0,0,0,0-2Z" transform="translate(-249.65 -370.66)"/><path class="cls-1" d="M262,425.48a1,1,0,0,0,1-1V419a1,1,0,0,0-2,0v5.49A1,1,0,0,0,262,425.48Z" transform="translate(-249.65 -370.66)"/><path class="cls-1" d="M267,425.48a1,1,0,0,0,1-1v-7.32a1,1,0,0,0-2,0v7.32A1,1,0,0,0,267,425.48Z" transform="translate(-249.65 -370.66)"/><path class="cls-1" d="M272.26,425.48a1,1,0,0,0,1-1v-8.82a1,1,0,0,0-2,0v8.82A1,1,0,0,0,272.26,425.48Z" transform="translate(-249.65 -370.66)"/><path class="cls-1" d="M277.3,425.48a1,1,0,0,0,1-1V410.73a1,1,0,0,0-2,0v13.75A1,1,0,0,0,277.3,425.48Z" transform="translate(-249.65 -370.66)"/><path class="cls-1" d="M343.55,420.37a1,1,0,0,0-.46-.11H329.63V383.77c0-5.49-5-7.67-7.68-8.06h-2.4v-1.45a3.59,3.59,0,1,0-7.17,0v1.45H301.77a1,1,0,0,0-.22.05v-1.5a3.59,3.59,0,1,0-7.17,0v1.45h-9.83v-1.45a3.59,3.59,0,1,0-7.17,0v1.45h-9.83v-1.45a3.59,3.59,0,1,0-7.17,0v1.45H257c-5.45,0-7.21,6.79-7.28,7.08a1,1,0,0,0,0,.24v85.63a1,1,0,0,0,2,0V394.16h76v26.1H311c-2.94,0-3.79,2.74-3.82,4.22V469.9a1,1,0,0,0,2,0V424.51c0-.23.13-2.25,1.82-2.25h31.82A3.44,3.44,0,0,1,344.5,425v42.73a1,1,0,0,0,2,0V425A5.62,5.62,0,0,0,343.55,420.37Zm-29.17-46.12a1.59,1.59,0,1,1,3.17,0v8a1.59,1.59,0,1,1-3.17,0ZM298,372.66a1.59,1.59,0,0,1,1.59,1.59v8a1.59,1.59,0,1,1-3.17,0v-5.17a1,1,0,0,0,0-.78v-2.06A1.59,1.59,0,0,1,298,372.66Zm-18.58,1.59a1.59,1.59,0,1,1,3.17,0v8a1.59,1.59,0,1,1-3.17,0Zm-17,0a1.59,1.59,0,1,1,3.17,0v8a1.59,1.59,0,1,1-3.17,0Zm-10.73,17.91v-9c.22-.78,1.71-5.45,5.31-5.45h3.42v4.56a3.59,3.59,0,1,0,7.17,0V377.7h9.83v4.56a3.59,3.59,0,1,0,7.17,0V377.7h9.83v4.56a3.59,3.59,0,1,0,7.17,0v-4.6a2.07,2.07,0,0,0,.22,0h10.61v4.56a3.59,3.59,0,1,0,7.17,0V377.7h2.18c.69.12,5.9,1.16,5.9,6.07v8.39Z" transform="translate(-249.65 -370.66)"/><path class="cls-1" d="M313.5,434.81h25.35a1,1,0,0,0,1-1v-7.56a1,1,0,0,0-1-1H313.5a1,1,0,0,0-1,1v7.56A1,1,0,0,0,313.5,434.81Zm1-7.56h23.35v5.56H314.5Z" transform="translate(-249.65 -370.66)"/><path class="cls-1" d="M329.38,437.3H313.5a1,1,0,0,0-1,1v5.32a1,1,0,0,0,1,1h15.88a1,1,0,0,0,1-1V438.3A1,1,0,0,0,329.38,437.3Zm-1,5.32H314.5V439.3h13.88Z" transform="translate(-249.65 -370.66)"/><path class="cls-1" d="M319.32,446.45H313.5a1,1,0,0,0-1,1v5.07a1,1,0,0,0,1,1h5.82a1,1,0,0,0,1-1v-5.07A1,1,0,0,0,319.32,446.45Zm-1,5.07H314.5v-3.07h3.82Z" transform="translate(-249.65 -370.66)"/><path class="cls-1" d="M329.32,446.45H323.5a1,1,0,0,0-1,1v5.07a1,1,0,0,0,1,1h5.82a1,1,0,0,0,1-1v-5.07A1,1,0,0,0,329.32,446.45Zm-1,5.07H324.5v-3.07h3.82Z" transform="translate(-249.65 -370.66)"/><path class="cls-1" d="M339.32,446.45H333.5a1,1,0,0,0-1,1v5.07a1,1,0,0,0,1,1h5.82a1,1,0,0,0,1-1v-5.07A1,1,0,0,0,339.32,446.45Zm-1,5.07H334.5v-3.07h3.82Z" transform="translate(-249.65 -370.66)"/><path class="cls-1" d="M319.32,455.45H313.5a1,1,0,0,0-1,1v5.07a1,1,0,0,0,1,1h5.82a1,1,0,0,0,1-1v-5.07A1,1,0,0,0,319.32,455.45Zm-1,5.07H314.5v-3.07h3.82Z" transform="translate(-249.65 -370.66)"/><path class="cls-1" d="M329.32,455.45H323.5a1,1,0,0,0-1,1v5.07a1,1,0,0,0,1,1h5.82a1,1,0,0,0,1-1v-5.07A1,1,0,0,0,329.32,455.45Zm-1,5.07H324.5v-3.07h3.82Z" transform="translate(-249.65 -370.66)"/><path class="cls-1" d="M339.32,455.45H333.5a1,1,0,0,0-1,1v5.07a1,1,0,0,0,1,1h5.82a1,1,0,0,0,1-1v-5.07A1,1,0,0,0,339.32,455.45Zm-1,5.07H334.5v-3.07h3.82Z" transform="translate(-249.65 -370.66)"/><path class="cls-1" d="M309.17,408.37H290a1,1,0,0,0,0,2h19.2a1,1,0,0,0,0-2Z" transform="translate(-249.65 -370.66)"/><path class="cls-1" d="M321.44,410.37a1,1,0,0,0,0-2h-9.11a1,1,0,0,0,0,2Z" transform="translate(-249.65 -370.66)"/><path class="cls-1" d="M307.67,415.66a1,1,0,0,0,1,1h12.77a1,1,0,0,0,0-2H308.67A1,1,0,0,0,307.67,415.66Z" transform="translate(-249.65 -370.66)"/><path class="cls-1" d="M304.52,414.66H290a1,1,0,0,0,0,2h14.55a1,1,0,0,0,0-2Z" transform="translate(-249.65 -370.66)"/><path class="cls-1" d="M290,422.73h12.3a1,1,0,0,0,0-2H290a1,1,0,0,0,0,2Z" transform="translate(-249.65 -370.66)"/><path class="cls-1" d="M290,437.06h12.3a1,1,0,0,0,0-2H290a1,1,0,0,0,0,2Z" transform="translate(-249.65 -370.66)"/><path class="cls-1" d="M290,443.38h12.3a1,1,0,0,0,0-2H290a1,1,0,0,0,0,2Z" transform="translate(-249.65 -370.66)"/><path class="cls-1" d="M290,449.42h12.3a1,1,0,0,0,0-2H290a1,1,0,0,0,0,2Z" transform="translate(-249.65 -370.66)"/><path class="cls-1" d="M290.27,450.47c-4.86,0-9,1.12-11.33,2.88H257a1,1,0,1,0,0,2h20.21a3.62,3.62,0,0,0-.42,1.66,3,3,0,0,0,0,.31.8.8,0,0,0,0,.15v10.62a1,1,0,0,0,2,0v-7.57c2.34,1.85,6.53,3,11.52,3s9.19-1.18,11.53-3v7a1,1,0,0,0,2,0V457C303.8,453.28,298,450.47,290.27,450.47Zm0,11.08c-6.79,0-11.52-2.39-11.52-4.54a2.44,2.44,0,0,1,.95-1.71,1,1,0,0,0,.67-.51c1.93-1.3,5.48-2.32,9.9-2.32,6.8,0,11.53,2.39,11.53,4.54S297.07,461.55,290.27,461.55Z" transform="translate(-249.65 -370.66)"/></svg>