<svg id="Слой_1" data-name="Слой 1" xmlns="http://www.w3.org/2000/svg" viewBox="0 0 103.76 103.81"><defs><style>.cls-1{fill:#c5cfd9;}</style></defs><path class="cls-1" d="M289.35,397.22a1,1,0,0,0,1-1v-4.07s0,0,0,0a1.14,1.14,0,0,0-.07-.32s0,0,0,0a.77.77,0,0,0-.19-.28.17.17,0,0,0-.06-.06l-.06-.07-3.66-2.74a1,1,0,0,0-1.2,1.6l2.32,1.74-13.69,6.34-4.09-3.57a1,1,0,0,0-1.1-.14l-13.72,6.9a1,1,0,0,0,.45,1.9,1.06,1.06,0,0,0,.45-.11l13.12-6.6,4.06,3.55a1,1,0,0,0,1.08.15l14.38-6.66v2.51A1,1,0,0,0,289.35,397.22Z" transform="translate(-246.2 -368.87)"/><path class="cls-1" d="M264.24,390a.84.84,0,0,0,.38-.08c.47-.19,2.82-1.26,2.82-3.12V370.87h44.82a17.86,17.86,0,1,0,19.45,29.73l9,6a.89.89,0,0,0,.38.15,9.78,9.78,0,0,0,1.74.14c1.8,0,4.45-.44,5.36-2.88,1.35-3.65-.2-6.32-1.93-7.49-1.31-.89-6.72-3.79-8.69-4.83a17.64,17.64,0,0,0,.7-4.9,17.9,17.9,0,0,0-17.87-17.88H266.32a1,1,0,0,0-.71.29l-19.12,19.12a1.06,1.06,0,0,0-.22.33,1,1,0,0,0-.07.38v75.32a1,1,0,0,0,2,0V390Zm80.94,8.14c1.19.81,2.12,2.58,1.17,5.15-.69,1.86-3.87,1.59-4.68,1.49l-8.44-5.56a18.11,18.11,0,0,0,3.73-5.65C339.08,394.7,344,397.34,345.18,398.13Zm-8.87-11.38a15.88,15.88,0,1,1-15.87-15.88A15.89,15.89,0,0,1,336.31,386.75ZM264,388H249.61l15.83-15.83v14.63C265.44,387.08,264.76,387.64,264,388Z" transform="translate(-246.2 -368.87)"/><path class="cls-1" d="M291.59,400.05h-7.9a1,1,0,0,0-1,1v22.11h-4.1V408.11a1,1,0,0,0-1-1h-7.9a1,1,0,0,0-1,1v15.05h-5.1v-9.52a1,1,0,0,0-1-1h-7.9a1,1,0,0,0-1,1v10.52a1,1,0,0,0,1,1h36.9a1,1,0,0,0,1-1V401.05A1,1,0,0,0,291.59,400.05Zm-35.9,23.11v-8.52h5.9v8.52Zm15,0V409.11h5.9v14.05Zm14,0V402.05h5.9v21.11Z" transform="translate(-246.2 -368.87)"/><path class="cls-1" d="M254.69,434.55H275a1,1,0,0,0,0-2H254.69a1,1,0,0,0,0,2Z" transform="translate(-246.2 -368.87)"/><path class="cls-1" d="M291.59,440h-36.9a1,1,0,0,0,0,2h36.9a1,1,0,0,0,0-2Z" transform="translate(-246.2 -368.87)"/><path class="cls-1" d="M291.59,446.52h-36.9a1,1,0,0,0,0,2h36.9a1,1,0,0,0,0-2Z" transform="translate(-246.2 -368.87)"/><path class="cls-1" d="M291.59,453.83h-36.9a1,1,0,0,0,0,2h36.9a1,1,0,0,0,0-2Z" transform="translate(-246.2 -368.87)"/><path class="cls-1" d="M346.12,409.38H301.57a3.84,3.84,0,0,0-3.83,3.84v55.63a3.84,3.84,0,0,0,3.83,3.83h44.55a3.84,3.84,0,0,0,3.83-3.83V413.22A3.84,3.84,0,0,0,346.12,409.38Zm-46.38,24h23.11v17.7H299.74Zm25.11,0H348v17.7h-23.1Zm-23.28-22h44.55a1.84,1.84,0,0,1,1.83,1.84v18.17H299.74V413.22A1.84,1.84,0,0,1,301.57,411.38Zm44.55,59.3H301.57a1.83,1.83,0,0,1-1.83-1.83V453.09h23.11V463.4a1,1,0,0,0,2,0V453.09H348v15.76A1.83,1.83,0,0,1,346.12,470.68Z" transform="translate(-246.2 -368.87)"/><path class="cls-1" d="M312.94,393.69a1,1,0,0,0,.71.29,1,1,0,0,0,.71-.29l13.78-13.79a1,1,0,0,0-1.41-1.41l-13.79,13.78A1,1,0,0,0,312.94,393.69Z" transform="translate(-246.2 -368.87)"/><path class="cls-1" d="M319.25,381.15a4.3,4.3,0,1,0-4.3,4.3A4.31,4.31,0,0,0,319.25,381.15Zm-6.6,0a2.3,2.3,0,1,1,2.3,2.3A2.3,2.3,0,0,1,312.65,381.15Z" transform="translate(-246.2 -368.87)"/><path class="cls-1" d="M321.65,391.15a4.3,4.3,0,1,0,4.3-4.3A4.31,4.31,0,0,0,321.65,391.15Zm6.6,0a2.3,2.3,0,1,1-2.3-2.3A2.3,2.3,0,0,1,328.25,391.15Z" transform="translate(-246.2 -368.87)"/><path class="cls-1" d="M316.11,441.2h-9.89a1,1,0,0,0,0,2h9.89a1,1,0,0,0,0-2Z" transform="translate(-246.2 -368.87)"/><path class="cls-1" d="M316.45,461.07h-4.28v-4.74a1,1,0,0,0-2,0v4.74H305a1,1,0,0,0,0,2h5.2v.33a1,1,0,0,0,2,0v-.33h4.28a1,1,0,0,0,0-2Z" transform="translate(-246.2 -368.87)"/><path class="cls-1" d="M341.64,458.07h-10a1,1,0,0,0,0,2h10a1,1,0,0,0,0-2Z" transform="translate(-246.2 -368.87)"/><path class="cls-1" d="M338.23,442.14l3.23-3.23a1,1,0,0,0,0-1.41,1,1,0,0,0-1.42,0l-3.22,3.23-3.23-3.23a1,1,0,0,0-1.42,0,1,1,0,0,0,0,1.41l3.23,3.23-3.23,3.23a1,1,0,1,0,1.42,1.41l3.23-3.22,3.22,3.22a1,1,0,0,0,1.42-1.41Z" transform="translate(-246.2 -368.87)"/></svg>