<svg id="Слой_1" data-name="Слой 1" xmlns="http://www.w3.org/2000/svg" viewBox="0 0 118.75 97.16"><defs><style>.cls-1{fill:#c5cfd9;}</style></defs><path class="cls-1" d="M340,431.52a1.13,1.13,0,0,0-.45.26l-12.78,12.78-4-4a1.12,1.12,0,0,0-.42-.25,4.62,4.62,0,0,0-5.54,2.48,6.27,6.27,0,0,0,0,2.88.89.89,0,0,0,.27.48l8.29,8.3a1.91,1.91,0,0,0,1.4.46,5.74,5.74,0,0,0,1.42-.2.92.92,0,0,0,.46-.26L346,437.14a1,1,0,0,0,.29-.66,6.74,6.74,0,0,0-1.19-3.87C343.61,430.61,340.32,431.42,340,431.52Zm-12.54,21.34a4.45,4.45,0,0,1-.79.08L318.67,445a3.89,3.89,0,0,1,0-1.59,2.74,2.74,0,0,1,2.83-1.2l4.48,4.48a1,1,0,0,0,1.42,0l13.28-13.28c.83-.17,2.26-.25,2.72.38a4.73,4.73,0,0,1,.8,2.26Z" transform="translate(-238.7 -372.2)"/><path class="cls-1" d="M343.79,419.47V395a.88.88,0,0,0,0-.16c0-.22-.93-5.33-4.89-5.33H316v-9.17c0-5.31-5.11-7.6-7.81-8.08H275.67c-5.72,0-8.43,5.29-9.07,8.09a1.8,1.8,0,0,0,0,.22v8.95H243.69l-.24,0c-1.65.41-4.75,2.12-4.75,5.63v30.76a.57.57,0,0,0,0,.13,4.64,4.64,0,0,0,4,3.86v32.5c0,3.87,4.8,6.59,5,6.7a1.07,1.07,0,0,0,.49.12,1,1,0,0,0,.87-.51,1,1,0,0,0-.38-1.36c-1.11-.62-4-2.71-4-4.95V430H258.9v2.66a1.49,1.49,0,0,0,0,.21,2.29,2.29,0,0,0,2.06,2h3.92a15.79,15.79,0,0,0,1.86,5,17.56,17.56,0,0,1,1.45,2.5l-2.67,3.09a1,1,0,0,0-.23.75,7,7,0,0,0,.95,3.1c.6.77,4,4.19,4.41,4.58a1,1,0,0,0,1.08.22l2.25-.91a1,1,0,0,0,.43-.34,17.89,17.89,0,0,1,2.37-2.21l5,2.82.12.06a9.35,9.35,0,0,0,2.39.58v3.73a1,1,0,0,0,.11.45,3.85,3.85,0,0,0,3.38,2.05h6.32a1.09,1.09,0,0,0,.26,0c1.08-.29,2.9-1.26,2.9-3v-3.31a26.74,26.74,0,0,0,7.92-3.73,26.63,26.63,0,1,0,38.56-30.63Zm-75.21-38.83c.22-.87,1.87-6.44,7.09-6.44h32.27c.75.15,6.08,1.39,6.08,6.09v9.17h-6.87v-5.62a1,1,0,0,0-.06-.34c-.29-.8-1.37-3.43-3.15-3.43H278.66a.84.84,0,0,0-.27,0c-.72.2-3.06,1-3.06,2.73v6.62h-6.75Zm8.75,8.82V382.9a3.35,3.35,0,0,1,1.49-.83H303.9a4.54,4.54,0,0,1,1.25,2v5.44ZM243.69,428a2.75,2.75,0,0,1-3-2.15V395.12c0-2.56,2.56-3.49,3.13-3.66h95c2.09,0,2.8,3.08,2.91,3.59v23.41a26.59,26.59,0,0,0-25.64,2,16.35,16.35,0,0,0-1.81-4.34l-.75-1.08,2.77-3.83a.93.93,0,0,0,.19-.6c0-2.7-.89-3-1.21-3.1a4.52,4.52,0,0,1-.79-.36l-4-3.74a.78.78,0,0,0-.24-.16c-.2-.1-2-.94-3.19.14-.53.47-1.77,1.74-2.52,2.51a27.72,27.72,0,0,0-5-3l-1.26-.47v-3.37a1,1,0,0,0-.34-.76c-.5-.43-2.22-1.82-3.57-1.82h-6.9a1,1,0,0,0-.35.06c-.56.22-2.39,1-2.39,2.52v3.73c-1.48.28-4.22.87-5.29,1.59-.76.5-1.68,1.07-2.27,1.43l-2.44-2a1.58,1.58,0,0,0-.24-.15c-.75-.33-2.61-1-3.64-.09-.62.54-4.34,4.32-5.34,5.33-.71.36-.58,1.21-.47,1.9a1,1,0,0,0,.21.48l2.93,3.59c-.66,1.51-2.34,5.34-2.63,6.51l-.31,1.23h-3c-1.63.06-3.38.66-3.38,2.17V428Zm52.39,24.14a1,1,0,0,0-.77,1v4.08c0,.49-.83.92-1.31,1.08h-6.17a1.85,1.85,0,0,1-1.49-.79v-4.37a1,1,0,0,0-1-1,8.33,8.33,0,0,1-2.59-.48l-5.57-3.13a1,1,0,0,0-1.11.09,29.76,29.76,0,0,0-3.07,2.78l-1.39.57c-1.47-1.48-3.41-3.47-3.77-3.93a4.56,4.56,0,0,1-.49-1.65l2.79-3.24a1,1,0,0,0,.17-1,18.32,18.32,0,0,0-1.91-3.45,15.58,15.58,0,0,1-1.69-5,1,1,0,0,0-1-.82l-4.64,0a.84.84,0,0,1-.18-.32v-7.54a4,4,0,0,1,1.41-.31h3.74a1,1,0,0,0,1-.75l.5-2c.23-.91,1.78-4.53,2.77-6.73a1,1,0,0,0-.14-1L267,410.27c1.93-2,4.73-4.78,5.09-5.12a3.49,3.49,0,0,1,1.48.31l2.88,2.4a1,1,0,0,0,1.15.09c.07,0,1.7-1,2.95-1.86a21.92,21.92,0,0,1,5.35-1.42,1,1,0,0,0,.84-1l0-4.49a2.54,2.54,0,0,1,1-.66h6.7a5.06,5.06,0,0,1,1.91,1.05v3.6a1,1,0,0,0,.66.94l1.91.7a30.72,30.72,0,0,1,5.23,3.24,1,1,0,0,0,1.32-.11s2.31-2.39,3-3c.1-.09.52,0,.85.09l4,3.72.18.13a7.88,7.88,0,0,0,.95.47,6.6,6.6,0,0,1,.14,1l-3,4.12a1,1,0,0,0,0,1.16l1.16,1.67a16.81,16.81,0,0,1,1.73,4.44A26.61,26.61,0,0,0,304.7,448,24.62,24.62,0,0,1,296.08,452.09Zm34.74,15.26a24.63,24.63,0,1,1,24.63-24.63A24.66,24.66,0,0,1,330.82,467.35Z" transform="translate(-238.7 -372.2)"/><path class="cls-1" d="M296.36,416.21l-.24,0h-9.94a1,1,0,0,0-1,1v17.26h-5.27a1,1,0,0,0,0,2h5.27v6.28a1,1,0,0,0,2,0v-6.28h7.89a1,1,0,0,0,0-2h-7.89v-5.16h9a.84.84,0,0,0,.31,0,7.2,7.2,0,0,0,4.9-6.67A6.62,6.62,0,0,0,296.36,416.21ZM296,427.28h-8.82v-9.1H296a4.63,4.63,0,0,1,3.41,4.38A5.18,5.18,0,0,1,296,427.28Z" transform="translate(-238.7 -372.2)"/></svg>