<svg id="Слой_1" data-name="Слой 1" xmlns="http://www.w3.org/2000/svg" viewBox="0 0 102.43 100.65"><defs><style>.cls-1{fill:#c5cfd9;}</style></defs><path class="cls-1" d="M349.13,373.78c-.52-.78-2.32-3.33-4.06-3.33H272.91a1,1,0,0,0-.38.08c-.77.32-4.61,2-4.61,4.58v39.12h-1.55v-1.82a1.06,1.06,0,0,0,0-.31c-.05-.15-1.26-3.8-4.5-3.8s-4.45,3.47-4.5,3.62a1.13,1.13,0,0,0-.05.32v2h-7.42c-2,0-2.83,3-3,3.66a.85.85,0,0,0,0,.23v52a1,1,0,0,0,2,0v-2.27a6.08,6.08,0,0,0,4.94,1.71c3.77-.65,5.37-5.69,5.44-5.9a1,1,0,0,0,0-.3v-2.1h78.31c0,.45,0,1,.06,1.81.06,1.66-2.21,4.27-3.65,5.52a1,1,0,0,0-.1,1.41,1,1,0,0,0,.75.35,1,1,0,0,0,.66-.25c.46-.39,4.46-3.95,4.33-7.11-.07-1.75,0-2.31,0-2.46a1.24,1.24,0,0,0,0-.27,1,1,0,0,0-1-1h-9.19V417.56a3.24,3.24,0,0,0-.95-2.44,3.5,3.5,0,0,0-2.38-.89h-6.75v-1.82a1.06,1.06,0,0,0,0-.31c-.05-.15-1.26-3.8-4.5-3.8s-4.45,3.47-4.5,3.62a1.13,1.13,0,0,0-.05.32v2H293.37v-1.82a1.06,1.06,0,0,0,0-.31c-.05-.15-1.26-3.8-4.5-3.8s-4.45,3.47-4.5,3.62a1.13,1.13,0,0,0-.05.32v2a1,1,0,0,0-.17,0H269.92V375.11c0-.83,1.8-2,3.2-2.66h71.95c.4,0,1.43,1.06,2.22,2.19v94a1,1,0,0,0,2,0V374.33A1.1,1.1,0,0,0,349.13,373.78Zm-89.85,38.65c.21-.49,1-2.13,2.55-2.13s2.35,1.79,2.54,2.28v7.64h-5.09Zm68.17,46.81H258.28a1,1,0,0,0-1,1v2.94c-.25.69-1.54,4-3.82,4.39s-4.05-1.93-4.6-2.67V426.54h78.59Zm-15.17-46.81c.21-.49,1-2.13,2.55-2.13s2.35,1.79,2.54,2.28v7.64h-5.09Zm-26,0c.21-.49,1-2.13,2.55-2.13s2.35,1.79,2.54,2.28v7.64h-5.09Zm-2.17,3.8a1,1,0,0,0,.17,0v5a1,1,0,0,0,1,1h7.09a1,1,0,0,0,1-1v-5h16.91v5a1,1,0,0,0,1,1h7.09a1,1,0,0,0,1-1v-5h6.79a1.48,1.48,0,0,1,1,.34,1.35,1.35,0,0,1,.32,1v7H248.86v-6.31a4,4,0,0,1,1-2h7.42v5a1,1,0,0,0,1,1h7.09a1,1,0,0,0,1-1v-5Z" transform="translate(-246.86 -370.45)"/><path class="cls-1" d="M287.91,379.94a1,1,0,0,0-1.41,0l-6.17,6.26-2.83-2.83a1,1,0,0,0-1.41,0,1,1,0,0,0,0,1.41l3.54,3.55a1,1,0,0,0,.71.29h0a1,1,0,0,0,.71-.3l6.87-7A1,1,0,0,0,287.91,379.94Z" transform="translate(-246.86 -370.45)"/><path class="cls-1" d="M286.5,398l-6.17,6.26-2.83-2.83a1,1,0,0,0-1.41,0,1,1,0,0,0,0,1.41l3.54,3.55a1,1,0,0,0,.71.29,1,1,0,0,0,.71-.3l6.87-7a1,1,0,1,0-1.42-1.4Z" transform="translate(-246.86 -370.45)"/><path class="cls-1" d="M293.25,381.65h12.81a1,1,0,1,0,0-2H293.25a1,1,0,0,0,0,2Z" transform="translate(-246.86 -370.45)"/><path class="cls-1" d="M293.25,389.08h16.13a1,1,0,0,0,0-2H293.25a1,1,0,0,0,0,2Z" transform="translate(-246.86 -370.45)"/><path class="cls-1" d="M293.25,398.94h12.14a1,1,0,0,0,0-2H293.25a1,1,0,0,0,0,2Z" transform="translate(-246.86 -370.45)"/><path class="cls-1" d="M293.25,405.59h17a1,1,0,0,0,0-2h-17a1,1,0,0,0,0,2Z" transform="translate(-246.86 -370.45)"/><path class="cls-1" d="M311.48,393a15.36,15.36,0,1,0,15.36-15.36A15.37,15.37,0,0,0,311.48,393Zm28.71,0a13.36,13.36,0,1,1-13.35-13.36A13.37,13.37,0,0,1,340.19,393Z" transform="translate(-246.86 -370.45)"/><path class="cls-1" d="M323.17,386.36v10.85h-2.86a1,1,0,0,0,0,2h2.86v2.93a1,1,0,0,0,2,0v-2.93h4.05a1,1,0,0,0,0-2h-4.05v-2h6.11a1.06,1.06,0,0,0,.31-.05,5.44,5.44,0,0,0,3.68-5,5,5,0,0,0-3.79-4.79l-.24,0h-7.07A1,1,0,0,0,323.17,386.36Zm2,1h5.93a3,3,0,0,1,2.17,2.82,3.39,3.39,0,0,1-2.18,3.07h-5.92Z" transform="translate(-246.86 -370.45)"/><path class="cls-1" d="M258.79,440h5.82a1,1,0,0,0,1-1v-5.08a1,1,0,0,0-1-1h-5.82a1,1,0,0,0-1,1V439A1,1,0,0,0,258.79,440Zm1-5.08h3.82V438h-3.82Z" transform="translate(-246.86 -370.45)"/><path class="cls-1" d="M268.79,440h5.82a1,1,0,0,0,1-1v-5.08a1,1,0,0,0-1-1h-5.82a1,1,0,0,0-1,1V439A1,1,0,0,0,268.79,440Zm1-5.08h3.82V438h-3.82Z" transform="translate(-246.86 -370.45)"/><path class="cls-1" d="M278.79,440h5.82a1,1,0,0,0,1-1v-5.08a1,1,0,0,0-1-1h-5.82a1,1,0,0,0-1,1V439A1,1,0,0,0,278.79,440Zm1-5.08h3.82V438h-3.82Z" transform="translate(-246.86 -370.45)"/><path class="cls-1" d="M258.79,449h5.82a1,1,0,0,0,1-1v-5.08a1,1,0,0,0-1-1h-5.82a1,1,0,0,0-1,1V448A1,1,0,0,0,258.79,449Zm1-5.08h3.82V447h-3.82Z" transform="translate(-246.86 -370.45)"/><path class="cls-1" d="M268.79,449h5.82a1,1,0,0,0,1-1v-5.08a1,1,0,0,0-1-1h-5.82a1,1,0,0,0-1,1V448A1,1,0,0,0,268.79,449Zm1-5.08h3.82V447h-3.82Z" transform="translate(-246.86 -370.45)"/><path class="cls-1" d="M278.79,449h5.82a1,1,0,0,0,1-1v-5.08a1,1,0,0,0-1-1h-5.82a1,1,0,0,0-1,1V448A1,1,0,0,0,278.79,449Zm1-5.08h3.82V447h-3.82Z" transform="translate(-246.86 -370.45)"/><path class="cls-1" d="M288.85,440h5.82a1,1,0,0,0,1-1v-5.08a1,1,0,0,0-1-1h-5.82a1,1,0,0,0-1,1V439A1,1,0,0,0,288.85,440Zm1-5.08h3.82V438h-3.82Z" transform="translate(-246.86 -370.45)"/><path class="cls-1" d="M298.85,440h5.82a1,1,0,0,0,1-1v-5.08a1,1,0,0,0-1-1h-5.82a1,1,0,0,0-1,1V439A1,1,0,0,0,298.85,440Zm1-5.08h3.82V438h-3.82Z" transform="translate(-246.86 -370.45)"/><path class="cls-1" d="M308.85,440h5.82a1,1,0,0,0,1-1v-5.08a1,1,0,0,0-1-1h-5.82a1,1,0,0,0-1,1V439A1,1,0,0,0,308.85,440Zm1-5.08h3.82V438h-3.82Z" transform="translate(-246.86 -370.45)"/><path class="cls-1" d="M288.85,449h5.82a1,1,0,0,0,1-1v-5.08a1,1,0,0,0-1-1h-5.82a1,1,0,0,0-1,1V448A1,1,0,0,0,288.85,449Zm1-5.08h3.82V447h-3.82Z" transform="translate(-246.86 -370.45)"/><path class="cls-1" d="M298.85,449h5.82a1,1,0,0,0,1-1v-5.08a1,1,0,0,0-1-1h-5.82a1,1,0,0,0-1,1V448A1,1,0,0,0,298.85,449Zm1-5.08h3.82V447h-3.82Z" transform="translate(-246.86 -370.45)"/><path class="cls-1" d="M308.85,449h5.82a1,1,0,0,0,1-1v-5.08a1,1,0,0,0-1-1h-5.82a1,1,0,0,0-1,1V448A1,1,0,0,0,308.85,449Zm1-5.08h3.82V447h-3.82Z" transform="translate(-246.86 -370.45)"/></svg>