<svg id="Слой_1" data-name="Слой 1" xmlns="http://www.w3.org/2000/svg" viewBox="0 0 104.09 102.43"><defs><style>.cls-1{fill:#c5cfd9;}</style></defs><path class="cls-1" d="M309,375.77a1,1,0,0,0-1-1H250.36c-3.21,0-4.23,3.08-4.33,4.77v84.13a1,1,0,0,0,2,0V379.6c0-.29.25-2.83,2.33-2.83H308A1,1,0,0,0,309,375.77Z" transform="translate(-246.03 -369.56)"/><path class="cls-1" d="M327.06,415.68A23.06,23.06,0,1,0,304,392.62,23.08,23.08,0,0,0,327.06,415.68Zm0-44.12A21.06,21.06,0,1,1,306,392.62,21.09,21.09,0,0,1,327.06,371.56Z" transform="translate(-246.03 -369.56)"/><path class="cls-1" d="M327.06,410.36a17.74,17.74,0,1,0-17.74-17.74A17.76,17.76,0,0,0,327.06,410.36Zm0-33.48a15.74,15.74,0,1,1-15.74,15.74A15.76,15.76,0,0,1,327.06,376.88Z" transform="translate(-246.03 -369.56)"/><path class="cls-1" d="M327.06,393.62h7.21a1,1,0,0,0,0-2h-6.21V380a1,1,0,0,0-2,0v12.64A1,1,0,0,0,327.06,393.62Z" transform="translate(-246.03 -369.56)"/><path class="cls-1" d="M254.46,385.09h19.06a1,1,0,0,0,0-2H254.46a1,1,0,1,0,0,2Z" transform="translate(-246.03 -369.56)"/><path class="cls-1" d="M298.13,383.09H278.07a1,1,0,0,0,0,2h20.06a1,1,0,0,0,0-2Z" transform="translate(-246.03 -369.56)"/><path class="cls-1" d="M299.13,389.3a1,1,0,0,0-1-1H254.46a1,1,0,1,0,0,2h43.67A1,1,0,0,0,299.13,389.3Z" transform="translate(-246.03 -369.56)"/><path class="cls-1" d="M276.29,427.1a1,1,0,0,0,1-1v-3.66a1,1,0,0,0-1-1H260.77a1,1,0,0,0-1,1v17.14l-4.59-4.76a1,1,0,0,0-1.42,0,1,1,0,0,0,0,1.41l6.32,6.54a1,1,0,0,0,.71.31,1.22,1.22,0,0,0,.38-.07,1,1,0,0,0,.62-.93V423.44h13.52v2.66A1,1,0,0,0,276.29,427.1Z" transform="translate(-246.03 -369.56)"/><path class="cls-1" d="M281.39,450.26H254.46a1,1,0,0,0,0,2h26.93a1,1,0,0,0,0-2Z" transform="translate(-246.03 -369.56)"/><path class="cls-1" d="M281.39,455.36H254.46a1,1,0,0,0,0,2h26.93a1,1,0,0,0,0-2Z" transform="translate(-246.03 -369.56)"/><path class="cls-1" d="M295,427.42a1,1,0,0,0-1.75-.05l-6,10.3s0,.06,0,.08l0,.08a1.09,1.09,0,0,0-.07.35v26.38a1,1,0,1,0,2,0V439.18h9.14v25.38a1,1,0,0,0,2,0V438.07a1,1,0,0,0-.11-.45Zm-1,2.55,3.61,7.21h-7.84Z" transform="translate(-246.03 -369.56)"/><path class="cls-1" d="M293.67,440.5a1,1,0,0,0-1,1v23.06a1,1,0,0,0,2,0V441.5A1,1,0,0,0,293.67,440.5Z" transform="translate(-246.03 -369.56)"/><path class="cls-1" d="M346.7,418.84a.93.93,0,0,0-.46-.12H309.33c-3,0-4.18,3.09-4.43,4.91a.66.66,0,0,0,0,.14v40.79a1,1,0,1,0,2,0V423.85c.07-.43.62-3.13,2.44-3.13H346c.56.35,2.15,1.46,2.15,2.94v40.46a1,1,0,0,0,2,0V423.66C350.12,420.65,346.84,418.91,346.7,418.84Z" transform="translate(-246.03 -369.56)"/><path class="cls-1" d="M344.35,423.66H310.88a1,1,0,0,0-1,1v12.52a1,1,0,0,0,1,1h33.47a1,1,0,0,0,1-1V424.66A1,1,0,0,0,344.35,423.66Zm-1,12.52H311.88V425.66h31.47Z" transform="translate(-246.03 -369.56)"/><path class="cls-1" d="M318.08,440h-7.2a1,1,0,0,0-1,1V453a1,1,0,0,0,1,1h7.2a1,1,0,0,0,1-1V441A1,1,0,0,0,318.08,440Zm-1,12.08h-5.2V442h5.2Z" transform="translate(-246.03 -369.56)"/><path class="cls-1" d="M318.08,456h-7.2a1,1,0,0,0-1,1V469a1,1,0,0,0,1,1h7.2a1,1,0,0,0,1-1V457A1,1,0,0,0,318.08,456Zm-1,12.08h-5.2V458h5.2Z" transform="translate(-246.03 -369.56)"/><path class="cls-1" d="M329.08,440h-7.2a1,1,0,0,0-1,1V453a1,1,0,0,0,1,1h7.2a1,1,0,0,0,1-1V441A1,1,0,0,0,329.08,440Zm-1,12.08h-5.2V442h5.2Z" transform="translate(-246.03 -369.56)"/><path class="cls-1" d="M329.08,456h-7.2a1,1,0,0,0-1,1V469a1,1,0,0,0,1,1h7.2a1,1,0,0,0,1-1V457A1,1,0,0,0,329.08,456Zm-1,12.08h-5.2V458h5.2Z" transform="translate(-246.03 -369.56)"/><path class="cls-1" d="M338.68,441.06h-.52a6.67,6.67,0,0,0-6.67,6.67v17.59a6.67,6.67,0,0,0,6.67,6.67h.52a6.67,6.67,0,0,0,6.67-6.67V447.73A6.67,6.67,0,0,0,338.68,441.06Zm4.67,24.26a4.67,4.67,0,0,1-4.67,4.67h-.52a4.68,4.68,0,0,1-4.67-4.67V447.73a4.68,4.68,0,0,1,4.67-4.67h.52a4.67,4.67,0,0,1,4.67,4.67Z" transform="translate(-246.03 -369.56)"/><path class="cls-1" d="M315,431.92h5.54a1,1,0,0,0,0-2H315a1,1,0,0,0,0,2Z" transform="translate(-246.03 -369.56)"/><path class="cls-1" d="M324.07,431.92h5.54a1,1,0,0,0,0-2h-5.54a1,1,0,0,0,0,2Z" transform="translate(-246.03 -369.56)"/><path class="cls-1" d="M333.49,431.92h6a1,1,0,0,0,0-2h-6a1,1,0,0,0,0,2Z" transform="translate(-246.03 -369.56)"/><path class="cls-1" d="M270.85,439H266.1a1,1,0,0,0,0,2H271c1.21,0,2-1.39,2.16-1.82a1,1,0,0,0,.09-.42V427.87a2.35,2.35,0,0,0-2.14-2.32h-5a1,1,0,0,0,0,2h4.8a.34.34,0,0,1,.32.33v4.38h-3.74a1,1,0,0,0,0,2h3.74v4.21A2.47,2.47,0,0,1,270.85,439Z" transform="translate(-246.03 -369.56)"/><path class="cls-1" d="M265.15,410.36a1,1,0,0,0,1-1v-1.79h1.75a1,1,0,0,0,0-2h-1.75v-1.78a1,1,0,0,0-2,0v1.78h-1.76a1,1,0,0,0,0,2h1.76v1.79A1,1,0,0,0,265.15,410.36Z" transform="translate(-246.03 -369.56)"/><path class="cls-1" d="M282.78,403.62a1,1,0,0,0,0,2h6.4a1,1,0,0,0,0-2Z" transform="translate(-246.03 -369.56)"/><path class="cls-1" d="M290.18,408.28a1,1,0,0,0-1-1h-6.4a1,1,0,0,0,0,2h6.4A1,1,0,0,0,290.18,408.28Z" transform="translate(-246.03 -369.56)"/><path class="cls-1" d="M261.58,414.14a1,1,0,1,0,0-2h-2.66V400.46a1,1,0,0,0-.58-.91,1,1,0,0,0-1.07.16L252,404.28a1,1,0,1,0,1.31,1.51l3.62-3.14v9.49H253.8a1,1,0,0,0,0,2Z" transform="translate(-246.03 -369.56)"/><path class="cls-1" d="M279.49,407.8a1,1,0,0,0,1-1v-6.34a1,1,0,0,0-1-1h-6.85a1,1,0,0,0,0,2h5.85v4.34h-5.85a1,1,0,0,0-1,1v6.34a1,1,0,0,0,1,1h6.85a1,1,0,0,0,0-2h-5.85V407.8Z" transform="translate(-246.03 -369.56)"/><path class="cls-1" d="M299.24,399.46H292.5a1,1,0,0,0,0,2h5.74v4.11h-4.07a1,1,0,0,0,0,2h4.07v4.57H292.5a1,1,0,0,0,0,2h6.74a1,1,0,0,0,1-1V400.46A1,1,0,0,0,299.24,399.46Z" transform="translate(-246.03 -369.56)"/></svg>