<svg id="Слой_1" data-name="Слой 1" xmlns="http://www.w3.org/2000/svg" viewBox="0 0 106.36 97.33"><defs><style>.cls-1{fill:#c5cfd9;}</style></defs><path class="cls-1" d="M351.17,449c-.21-.46-1.36-2.8-3.13-2.8H336.73a1,1,0,0,0-.51.14,5.06,5.06,0,0,0-2,2.21,5.54,5.54,0,0,0-4.08,1.81,4,4,0,0,0-.74,1.42c-1.72-1.78-4.52-2.88-8.36-3.25-9.24-.88-13.4,3.58-14.57,5.17a54.93,54.93,0,0,0-6,0,6.15,6.15,0,0,0-4.93,3.39l-6.23-5.38a5.92,5.92,0,0,0-6.95-.07,4.81,4.81,0,0,0-1.76,6.54.75.75,0,0,0,.15.2l1.57,1.63h-12a1,1,0,0,0-1,1v7.43a1,1,0,0,0,2,0V462h12.19a1,1,0,0,0,.57-.2l7,7.32a1,1,0,0,0,1.41,0,1,1,0,0,0,0-1.41L282.35,457.1a2.81,2.81,0,0,1,1.17-3.79,3.92,3.92,0,0,1,4.56-.08l7.21,6.24h0l3.42,3a1,1,0,0,0,.66.25h16.73a1,1,0,0,0,0-2H299.75l-2.6-2.25a4.43,4.43,0,0,1,3.51-2.74,53.19,53.19,0,0,1,6.29,0,1,1,0,0,0,.94-.5c.14-.23,3.41-5.63,13-4.71,3.63.35,6.22,1.41,7.49,3.08a4,4,0,0,1,.88,2.94,1.05,1.05,0,0,0,0,.47v11.47a1,1,0,0,0,2,0V453.7a.65.65,0,0,0,0-.2,2.61,2.61,0,0,1,.48-1.94,3.47,3.47,0,0,1,2.31-1v17a1,1,0,0,0,2,0V449.49c0-.48.56-1,1-1.33h11c.23,0,.82.66,1.22,1.44v17.95a1,1,0,0,0,2,0V449.37A1,1,0,0,0,351.17,449Z" transform="translate(-244.89 -372.11)"/><path class="cls-1" d="M291.61,440.78A26.6,26.6,0,1,0,321,397V380.32a8.19,8.19,0,0,0-6.21-8.18.78.78,0,0,0-.22,0H252.49a7.92,7.92,0,0,0-7.56,5.72,1.26,1.26,0,0,0,0,.27v12a1,1,0,0,0,1,1h11.65v77.37a1,1,0,0,0,2,0V378.65a.76.76,0,0,0,0-.15,8.36,8.36,0,0,0-2.19-4.39h57.1a6.21,6.21,0,0,1,4.55,6.21v15.75a26.57,26.57,0,0,0-33.66,12.84H266.12a1,1,0,0,0,0,2h18.31a26.53,26.53,0,0,0-1.59,5.76H266.12a1,1,0,0,0,0,2h16.5c-.06.7-.09,1.4-.09,2.11a26.47,26.47,0,0,0,.18,3.1H266.12a1,1,0,0,0,0,2H283a26.85,26.85,0,0,0,1.68,5.42H266.12a1,1,0,0,0,0,2h19.55a26.55,26.55,0,0,0,3.95,5.54h-23.5a1,1,0,0,0,0,2h25.17A1.13,1.13,0,0,0,291.61,440.78Zm-34.07-62v10.33H246.89V378.25a5.93,5.93,0,0,1,5.6-4.14C256.53,374.11,257.43,378.15,257.54,378.74Zm29.17,31.93a1,1,0,0,0,.37-.76v0a24.58,24.58,0,0,1,32-11.62,1,1,0,0,0,1.27.6,24.62,24.62,0,1,1-33.62,11.8Z" transform="translate(-244.89 -372.11)"/><path class="cls-1" d="M283.53,385.42h16.7a1,1,0,0,0,0-2h-16.7a1,1,0,0,0,0,2Z" transform="translate(-244.89 -372.11)"/><path class="cls-1" d="M283.53,392.62h29.59a1,1,0,0,0,0-2H283.53a1,1,0,0,0,0,2Z" transform="translate(-244.89 -372.11)"/><path class="cls-1" d="M267.17,396.94a1,1,0,0,0,2,0v-2.88h3.22a1,1,0,0,0,0-2h-3.22v-2h5.54a1.27,1.27,0,0,0,.34-.05c.17-.06,4.1-1.5,4.1-5s-4.13-4.69-4.3-4.74a1.07,1.07,0,0,0-.25,0h-6.43a1,1,0,0,0-1,1v10.86h-3.1a1,1,0,0,0,0,2h3.1Zm2-14.74h5.29c.51.16,2.69.95,2.69,2.77s-2.06,2.86-2.63,3.1h-5.35Z" transform="translate(-244.89 -372.11)"/><path class="cls-1" d="M292.51,429.42a5.19,5.19,0,0,0,3.73,1.43,7.31,7.31,0,0,0,.8-.05c5.71-.6,6.78-5.92,6.55-8.64a1,1,0,0,0-.06-.25l-5-13.88h5.58a5.34,5.34,0,0,0,4,4.17V436H301a1,1,0,0,0,0,2h16.05a1,1,0,0,0,0-2h-6.93V412.28a5.34,5.34,0,0,0,4.45-4.25h5l-5.18,14.63a.87.87,0,0,0-.05.22c0,.15-.38,3.67,1.72,6a7.07,7.07,0,0,0,9.73,0c2.38-2.51,2.19-6.57,2.18-6.74a1.16,1.16,0,0,0-.07-.31L322.12,407a.93.93,0,0,0-.25-.36.83.83,0,0,0-.09-.16A1,1,0,0,0,321,406h-6.38a5.32,5.32,0,0,0-10.45,0h-6.69a1,1,0,0,0-.93.62l-6.15,15.14a1,1,0,0,0-.07.3.77.77,0,0,0,0,.1s0,0,0,.05,0,0,0,0C290.24,423.2,290.22,427.21,292.51,429.42Zm31.8-1.86a4.33,4.33,0,0,1-3.35,1.29,4.43,4.43,0,0,1-3.43-1.29,6.3,6.3,0,0,1-1.23-4.32h9.63A7.26,7.26,0,0,1,324.31,427.56Zm-3.25-17.79,4.43,11.47H317Zm-11.71-6.06A3.32,3.32,0,1,1,306,407,3.33,3.33,0,0,1,309.35,403.71Zm-12.52,25.11a3.44,3.44,0,0,1-2.93-.84c-1.27-1.22-1.56-3.44-1.62-4.74h9.31C301.5,424.94,300.81,428.39,296.83,428.82Zm.39-18.59,3.95,11h-8.43Z" transform="translate(-244.89 -372.11)"/></svg>