<svg id="Слой_1" data-name="Слой 1" xmlns="http://www.w3.org/2000/svg" viewBox="0 0 12.16 12.17"><defs><style>.cls-1{fill:#fff;}</style></defs><path class="cls-1" d="M298.09,414.7a6.08,6.08,0,1,0,6.06,6.09A6.08,6.08,0,0,0,298.09,414.7Zm0,11.06a5,5,0,1,1,5-5A5,5,0,0,1,298.09,425.76Z" transform="translate(-291.99 -414.7)"/><path class="cls-1" d="M298.72,420.64a.26.26,0,0,1-.1-.22v-2.89a.9.9,0,0,0,0-.28.55.55,0,0,0-.62-.33.56.56,0,0,0-.44.55v1.65c0,.52,0,1,0,1.56a.72.72,0,0,0,.23.57l.86.85.7.7a.55.55,0,1,0,.78-.78Z" transform="translate(-291.99 -414.7)"/></svg>